<svg width="89" height="103" viewBox="0 0 89 103" fill="none" xmlns="http://www.w3.org/2000/svg">
<path d="M15.3288 21.2591C15.3288 31.95 8.61858 79.008 22.1621 79.3742C29.362 79.5689 39.2889 81.0665 46.0786 78.4246C54.436 75.1727 59.8628 68.6407 66.5785 63.0412C82.8892 49.4414 62.6483 40.1098 52.817 33.224C46.111 28.5272 31.6431 25.2739 23.8704 29.2357C13.2105 34.6692 13.6205 47.0672 13.6205 57.1537C13.6205 68.7081 29.7442 73.1121 39.2453 68.3589C49.2287 63.3645 55.3844 48.0806 59.5554 38.5417C64.1707 27.9865 63.623 22.865 55.3795 15.2767C39.5366 0.693258 19.9939 -0.0119981 14.4746 23.918C12.2739 33.4598 8.95687 47.8214 13.6205 57.1537C19.2411 68.4012 34.6632 79.7167 46.0786 84.1222C58.2236 88.8093 65.0521 82.586 72.4627 73.3918C78.5725 65.8114 86.5507 46.1108 79.4858 37.0224C65.8689 19.5053 28.554 8.90757 13.7154 28.9508C6.49429 38.7047 4.56159 51.7076 5.07884 63.611C5.4607 72.3985 17.5359 82.2409 23.9653 86.971C32.1257 92.9746 50.8496 101.964 61.0739 96.087C71.6237 90.0232 79.8796 70.4513 82.9024 59.2428C85.799 48.5027 83.0722 40.3005 73.4118 35.0282C67.7077 31.9152 53.5098 31.3188 48.1665 35.693C40.6862 41.8166 25.7353 73.7318 42.7568 75.8607C56.0801 77.527 70.613 61.1712 68.1919 47.8477C66.4226 38.1113 44.4692 42.431 39.6249 47.278C36.329 50.5757 30.0986 64.5427 35.8287 67.4093" stroke="#740606" stroke-width="10" stroke-linecap="round"/>
</svg>
