<svg width="201" height="62" viewBox="0 0 201 62" fill="none" xmlns="http://www.w3.org/2000/svg">
<rect y="14" width="201" height="35" fill="black"/>
<path d="M15.6 26.68C15.12 26.44 14.56 26.32 13.92 26.32C12.88 26.32 11.82 26.64 10.74 27.28C9.7 27.88 8.86 28.7 8.22 29.74C7.5 30.86 7.14 32.06 7.14 33.34C7.14 35.06 7.72 36.18 8.88 36.7C9.28 36.9 9.6 37 9.84 37C10 37 10.42 36.9 11.1 36.7C12.5 36.34 13.7 35.62 14.7 34.54C15.26 33.9 15.78 33 16.26 31.84C16.78 30.64 17.04 29.7 17.04 29.02C17.04 28.58 16.9 28.12 16.62 27.64C16.34 27.16 16 26.84 15.6 26.68ZM11.34 22.12C11.82 21.96 12.76 21.88 14.16 21.88C16.28 21.96 17.9 22.58 19.02 23.74C20.18 24.86 20.76 26.32 20.76 28.12C20.76 29.72 20.32 31.4 19.44 33.16C18.6 34.8 17.52 36.26 16.2 37.54C15.2 38.54 14.12 39.34 12.96 39.94C11.28 40.78 9.82 41.2 8.58 41.2C6.86 41.2 5.52 40.48 4.56 39.04C3.64 37.68 3.18 35.86 3.18 33.58C3.18 30.82 3.9 28.44 5.34 26.44C6.78 24.4 8.78 22.96 11.34 22.12ZM29.062 22C29.542 21.84 29.802 21.76 29.842 21.76C30.122 21.76 30.462 21.96 30.862 22.36C31.142 22.64 31.302 22.94 31.342 23.26C31.422 23.54 31.462 24.32 31.462 25.6C31.462 26.8 31.482 27.58 31.522 27.94C31.602 28.26 31.782 28.58 32.062 28.9C32.542 29.46 33.362 29.74 34.522 29.74C35.762 29.74 37.082 29.44 38.482 28.84C39.882 28.2 40.922 27.42 41.602 26.5C42.602 25.14 43.602 24.46 44.602 24.46C45.642 24.46 46.242 25.12 46.402 26.44C46.402 26.52 46.402 26.62 46.402 26.74C46.442 26.86 46.462 26.94 46.462 26.98C46.462 27.34 46.202 27.96 45.682 28.84C45.002 29.84 44.522 30.66 44.242 31.3C44.002 31.94 43.542 33.46 42.862 35.86C42.182 38.18 41.662 39.66 41.302 40.3C40.942 40.94 40.462 41.26 39.862 41.26C39.502 41.26 39.122 41.1 38.722 40.78C38.442 40.58 38.262 40.34 38.182 40.06C38.142 39.78 38.122 39.16 38.122 38.2C38.122 36.48 38.162 35.4 38.242 34.96L38.422 33.82L37.642 34C36.842 34.2 35.802 34.3 34.522 34.3H33.502C32.382 34.3 31.582 34.18 31.102 33.94C29.902 33.42 28.962 32.56 28.282 31.36C27.602 30.16 27.262 28.8 27.262 27.28C27.262 26.72 27.322 26.1 27.442 25.42C27.842 23.38 28.382 22.24 29.062 22ZM58.1461 22.06C58.4661 21.9 58.7261 21.82 58.9261 21.82C59.3261 21.82 59.6461 21.98 59.8861 22.3C60.1661 22.58 60.3061 22.94 60.3061 23.38C60.3061 23.42 59.9661 25.04 59.2861 28.24C58.6461 31.4 58.3261 33.04 58.3261 33.16C58.3261 33.2 58.5461 32.98 58.9861 32.5C59.4661 31.98 60.0461 31.32 60.7261 30.52C61.4461 29.68 62.1661 28.82 62.8861 27.94C63.6461 27.02 64.3461 26.18 64.9861 25.42C65.6261 24.62 66.0661 24.04 66.3061 23.68C67.1461 22.48 67.9861 21.88 68.8261 21.88C69.3061 21.88 69.7061 22.02 70.0261 22.3C70.4261 22.66 70.6261 23.06 70.6261 23.5C70.6261 23.78 70.5661 24.14 70.4461 24.58C69.8861 26.62 69.3261 29.9 68.7661 34.42C68.4461 36.98 68.2061 38.6 68.0461 39.28C67.9261 39.92 67.7061 40.36 67.3861 40.6C67.0661 40.8 66.6861 40.9 66.2461 40.9C65.8061 40.9 65.4261 40.78 65.1061 40.54C64.6661 40.22 64.4461 39.44 64.4461 38.2C64.4461 37.44 64.5061 36.46 64.6261 35.26C64.6261 35.1 64.6261 34.92 64.6261 34.72C64.6661 34.52 64.6861 34.36 64.6861 34.24C64.7261 34.08 64.7461 33.92 64.7461 33.76C64.7461 33.56 64.7461 33.42 64.7461 33.34C64.7861 33.22 64.8061 33.1 64.8061 32.98C64.8061 32.82 64.8061 32.7 64.8061 32.62C64.8061 32.54 64.8061 32.48 64.8061 32.44C64.8061 32.36 64.8061 32.3 64.8061 32.26V32.2C64.7261 32.2 63.6261 33.38 61.5061 35.74C59.3861 38.1 57.8661 39.7 56.9461 40.54C56.0261 41.38 55.3061 41.8 54.7861 41.8C54.4661 41.8 54.0661 41.6 53.5861 41.2C53.1861 40.92 52.9861 40.46 52.9861 39.82C52.9861 39.14 53.3061 37.4 53.9461 34.6C55.7061 26.88 57.1061 22.7 58.1461 22.06ZM78.6853 26.5C80.5653 23.26 83.7253 21.64 88.1653 21.64C89.4053 21.64 90.5253 21.74 91.5253 21.94C92.8053 22.14 93.6453 22.44 94.0453 22.84C94.3653 23.16 94.5253 23.52 94.5253 23.92C94.5253 24.32 94.3853 24.68 94.1053 25C93.9053 25.32 93.5853 25.48 93.1453 25.48C92.8653 25.48 92.6053 25.46 92.3653 25.42C90.9253 25.34 89.9453 25.3 89.4253 25.3C87.6253 25.3 86.3453 25.46 85.5853 25.78C84.9053 26.1 84.2453 26.56 83.6053 27.16C82.9653 27.72 82.5053 28.26 82.2253 28.78C81.7453 29.7 81.5053 30.86 81.5053 32.26C81.5053 33.26 81.6653 34.08 81.9853 34.72C82.1853 35.08 82.6653 35.44 83.4253 35.8C84.1053 36.16 85.0053 36.34 86.1253 36.34C88.4853 36.34 90.5653 35.56 92.3653 34C92.9253 33.48 93.5253 33.22 94.1653 33.22C94.6853 33.22 95.1453 33.42 95.5453 33.82C95.9053 34.18 96.0853 34.48 96.0853 34.72C96.0853 35.44 95.4453 36.38 94.1653 37.54C92.8853 38.66 91.5053 39.5 90.0253 40.06C88.4653 40.66 87.0053 40.96 85.6453 40.96C85.3253 40.96 84.7653 40.92 83.9653 40.84C81.6453 40.48 79.9453 39.74 78.8653 38.62C77.8253 37.46 77.2453 35.66 77.1253 33.22V32.32C77.1253 30.12 77.6453 28.18 78.6853 26.5ZM106.276 21.52C107.836 21.4 109.496 21.34 111.256 21.34C117.256 21.34 120.696 21.72 121.576 22.48C121.936 22.84 122.116 23.22 122.116 23.62C122.116 23.9 122.016 24.14 121.816 24.34C121.656 24.5 120.836 24.66 119.356 24.82C117.916 24.98 116.636 25.06 115.516 25.06H114.196L111.676 32.62C109.916 37.74 108.916 40.38 108.676 40.54C108.396 40.82 107.996 40.96 107.476 40.96C106.396 40.96 105.736 40.56 105.496 39.76C105.456 39.64 105.436 39.4 105.436 39.04C105.436 37.92 105.756 36.26 106.396 34.06C107.076 31.82 107.896 29.68 108.856 27.64L109.996 25.12L106.996 25.06C105.396 25.02 104.296 24.9 103.696 24.7C103.136 24.5 102.776 24.16 102.616 23.68C102.576 23.6 102.556 23.5 102.556 23.38C102.556 22.78 102.856 22.32 103.456 22C103.936 21.8 104.876 21.64 106.276 21.52ZM133.849 22.06C134.169 21.9 134.429 21.82 134.629 21.82C135.029 21.82 135.349 21.98 135.589 22.3C135.869 22.58 136.009 22.94 136.009 23.38C136.009 23.42 135.669 25.04 134.989 28.24C134.349 31.4 134.029 33.04 134.029 33.16C134.029 33.2 134.249 32.98 134.689 32.5C135.169 31.98 135.749 31.32 136.429 30.52C137.149 29.68 137.869 28.82 138.589 27.94C139.349 27.02 140.049 26.18 140.689 25.42C141.329 24.62 141.769 24.04 142.009 23.68C142.849 22.48 143.689 21.88 144.529 21.88C145.009 21.88 145.409 22.02 145.729 22.3C146.129 22.66 146.329 23.06 146.329 23.5C146.329 23.78 146.269 24.14 146.149 24.58C145.589 26.62 145.029 29.9 144.469 34.42C144.149 36.98 143.909 38.6 143.749 39.28C143.629 39.92 143.409 40.36 143.089 40.6C142.769 40.8 142.389 40.9 141.949 40.9C141.509 40.9 141.129 40.78 140.809 40.54C140.369 40.22 140.149 39.44 140.149 38.2C140.149 37.44 140.209 36.46 140.329 35.26C140.329 35.1 140.329 34.92 140.329 34.72C140.369 34.52 140.389 34.36 140.389 34.24C140.429 34.08 140.449 33.92 140.449 33.76C140.449 33.56 140.449 33.42 140.449 33.34C140.489 33.22 140.509 33.1 140.509 32.98C140.509 32.82 140.509 32.7 140.509 32.62C140.509 32.54 140.509 32.48 140.509 32.44C140.509 32.36 140.509 32.3 140.509 32.26V32.2C140.429 32.2 139.329 33.38 137.209 35.74C135.089 38.1 133.569 39.7 132.649 40.54C131.729 41.38 131.009 41.8 130.489 41.8C130.169 41.8 129.769 41.6 129.289 41.2C128.889 40.92 128.689 40.46 128.689 39.82C128.689 39.14 129.009 37.4 129.649 34.6C131.409 26.88 132.809 22.7 133.849 22.06ZM156.608 21.52C158.168 21.4 159.828 21.34 161.588 21.34C167.588 21.34 171.028 21.72 171.908 22.48C172.268 22.84 172.448 23.22 172.448 23.62C172.448 23.9 172.348 24.14 172.148 24.34C171.988 24.5 171.168 24.66 169.688 24.82C168.248 24.98 166.968 25.06 165.848 25.06H164.528L162.008 32.62C160.248 37.74 159.248 40.38 159.008 40.54C158.728 40.82 158.328 40.96 157.808 40.96C156.728 40.96 156.068 40.56 155.828 39.76C155.788 39.64 155.768 39.4 155.768 39.04C155.768 37.92 156.088 36.26 156.728 34.06C157.408 31.82 158.228 29.68 159.188 27.64L160.328 25.12L157.328 25.06C155.728 25.02 154.628 24.9 154.028 24.7C153.468 24.5 153.108 24.16 152.948 23.68C152.908 23.6 152.888 23.5 152.888 23.38C152.888 22.78 153.188 22.32 153.788 22C154.268 21.8 155.208 21.64 156.608 21.52ZM191.981 33.22C191.821 33.1 191.161 33.04 190.001 33.04C189.321 33.04 188.341 33.08 187.061 33.16C186.461 33.36 186.141 33.52 186.101 33.64C186.101 33.76 186.201 34.38 186.401 35.5C186.481 36.02 186.621 36.28 186.821 36.28C186.981 36.28 187.721 35.94 189.041 35.26C190.401 34.58 191.301 34.1 191.741 33.82C192.101 33.58 192.181 33.38 191.981 33.22ZM181.001 21.52C181.441 21.08 181.961 21 182.561 21.28C183.161 21.6 183.801 23.2 184.481 26.08L185.201 29.14L188.441 29.08H189.581C192.501 29.08 194.601 29.48 195.881 30.28C196.801 30.84 197.261 31.64 197.261 32.68C197.261 33.4 197.061 34.04 196.661 34.6C196.221 35.2 195.261 36 193.781 37C192.301 38 190.801 38.84 189.281 39.52C187.681 40.24 186.721 40.7 186.401 40.9C186.041 41.14 185.541 41.26 184.901 41.26C184.021 41.26 183.361 41.08 182.921 40.72C182.481 40.36 182.261 39.86 182.261 39.22C182.261 38.86 182.341 38.54 182.501 38.26C182.581 38.02 182.621 37.72 182.621 37.36C182.621 37.24 182.581 36.82 182.501 36.1L182.201 34.3H181.121H180.941C179.661 34.3 179.021 33.74 179.021 32.62C179.021 32.18 179.221 31.74 179.621 31.3C180.021 30.86 180.481 30.56 181.001 30.4C181.281 30.28 181.421 30.08 181.421 29.8C181.421 29.44 181.281 28.3 181.001 26.38C180.721 24.46 180.581 23.22 180.581 22.66C180.581 22.18 180.721 21.8 181.001 21.52Z" fill="white"/>
</svg>
