<svg width="128" height="298" viewBox="0 0 128 298" fill="none" xmlns="http://www.w3.org/2000/svg">
<path d="M67.1172 5.7965C73.4145 5.7965 79.719 5.18939 85.7193 7.26642C88.9399 8.38124 91.7691 10.3686 94.843 11.7269C96.7843 12.5846 99.1921 13.9198 100.317 15.8325C103.426 21.1177 106.664 26.2458 109.441 31.799C110.073 33.0627 110.833 34.967 110.911 36.3608C110.965 37.3403 110.911 38.5236 110.911 41.1365C110.911 44.4026 110.911 43.7494 110.911 48.322C110.911 52.8946 110.911 50.2817 110.911 54.4712M110.911 54.4712C110.911 56.4329 110.911 51.2615 110.911 54.4712ZM110.911 54.4712C110.911 56.3662 110.911 52.568 110.911 56.4329C110.911 58.447 110.911 54.4712 110.911 58.1204C110.911 60.4067 110.911 58.1204 109.441 61.7132C107.971 65.3059 109.264 61.5815 108.833 63.1236C107.708 67.1396 107.023 71.5215 105.918 75.3899C105.11 78.2195 103.704 79.7528 102.287 82.2334C100.327 83.5398 99.674 83.8664 97.7143 84.8463C95.7546 85.654 96.541 85.2341 94.9444 85.8567C93.3478 86.4793 92.1457 86.8572 91.182 87.1326C90.3506 87.3701 89.014 88.3293 89.014 89.05C89.014 92.3348 90.6205 96.9396 93.3478 99.0607C94.9165 100.281 99.0207 100.524 102.94 104.77" stroke="white" stroke-width="8.5075" stroke-linecap="round"/>
<path d="M102.613 104.77C103.92 107.056 103.87 106.104 104.573 107.383C105.708 109.446 106.762 110.621 107.718 112.772C108.861 115.344 110.885 117.712 112.178 120.299C114.018 123.979 115.655 127.535 116.487 131.602C117.044 134.326 117.573 139.419 116.157 141.968C115.59 142.988 115.929 144.796 115.929 145.946C115.929 150.197 115.608 154.902 116.487 159.074C117.632 164.517 116.774 170.029 117.323 175.522C117.611 178.401 118.111 181.385 118.21 184.266C118.277 186.218 118.027 188.11 118.565 189.994C119.117 191.926 119.122 195.099 119.122 197.14C119.122 199.119 119.579 200.956 119.579 202.893C119.579 207.339 120.491 211.633 120.491 216.097" stroke="white" stroke-width="8.5075" stroke-linecap="round"/>
<path d="M119.579 213.816C119.579 217.99 119.579 222.163 119.579 226.336C119.579 229.739 119.64 233.946 120.263 237.31C120.967 241.11 120.298 245.005 121.049 248.841C121.601 251.663 121.822 254.544 122.316 257.382C123.062 261.674 124.085 266.98 123 271.321C122.338 273.967 123.572 278.529 120.238 279.482C117.63 280.227 114.934 281.654 112.28 282.244C107.967 283.202 103.994 285.712 99.7347 287.009C93.216 288.993 86.3315 290.237 79.916 292.483C74.6834 294.314 67.6398 293.192 62.0995 293.192C59.9759 293.192 57.0811 293.729 55.3581 292.179C54.5579 291.458 53.9499 291.392 53.432 290.227C52.8351 288.884 53.2587 288.174 51.6073 288.174C48.832 288.174 46.3091 287.718 43.4974 287.718C40.0442 287.718 36.7964 288.507 33.4613 288.631C31.8242 288.691 30.5513 289.236 29.0009 289.518C26.3703 289.996 23.8279 289.999 21.1444 289.999C18.7536 289.999 16.3629 289.999 13.9721 289.999C12.9569 289.999 9.95134 289.237 12.3755 288.631" stroke="white" stroke-width="8.5075" stroke-linecap="round"/>
<path d="M13.7742 103.137C10.8347 106.076 9.8227 109.048 8.5484 110.322C6.91533 112.609 6.95019 113.851 6.58871 114.895C5.85859 117.004 5.76226 117.741 5.55965 120.071C5.27361 123.36 5.07812 126.556 5.07812 129.879C5.07812 131.985 5.99049 133.684 5.99049 135.91C5.99049 143.178 5.53431 150.236 5.53431 157.478C5.53431 164.286 8.05428 171.704 9.86805 178.234C11.2036 183.042 11.0222 188.298 12.0223 193.187C12.8076 197.026 12.5542 201.368 13.6442 205.048C14.396 207.585 14.2018 211.363 14.2018 214.044C14.2018 216.78 15.1142 219.422 15.1142 222.256C15.1142 225.115 15.9175 228.106 16.0265 231.05C16.1221 233.63 16.4827 236.248 16.4827 238.906C16.4827 241.559 15.5704 244.013 15.5704 246.763C15.5704 249.1 15.3901 251.764 14.658 253.961" stroke="white" stroke-width="8.5075" stroke-linecap="round"/>
<path d="M14.2047 252.592C14.2047 259.213 13.7397 264.863 11.569 270.941C10.4661 274.029 10.5291 277.231 10.0737 280.419C9.95135 281.276 9.63751 286.816 10.099 285.893" stroke="white" stroke-width="8.5075" stroke-linecap="round"/>
<path d="M65.7468 5.34049C64.1332 5.34049 60.1734 4.69812 59.2589 6.25286C58.4235 7.67289 56.3906 9.54504 55.2546 10.8147C54.6294 11.5134 54.0789 13.3398 53.9114 14.2614C53.614 15.8967 52.5241 17.0629 51.6051 18.4684C50.1418 20.7065 48.6258 22.7574 47.9556 25.4379C46.2712 32.1756 43.3938 38.8266 43.3938 45.9408C43.3938 48.1942 42.948 51.1086 43.6219 53.2651C44.4 55.7551 45.4542 57.7616 46.4857 60.0825C47.494 62.3512 47.3236 65.7501 47.414 68.189C47.0874 70.8019 47.414 68.8422 46.1309 72.3995C44.8011 75.0479 44.6312 75.877 44.2048 77.3161C43.4081 80.0049 42.3365 82.8286 41.5944 85.4261C41.3403 86.3153 41.9186 87.3068 41.2143 88.0111C40.6229 88.6024 39.2105 88.6582 38.3758 89.0756C34.988 90.7694 31.7318 92.803 28.3397 94.4991C24.8577 96.2401 21.6299 98.647 18.0756 100.227C15.138 101.532 14.0994 103.137 11.4609 106.613" stroke="white" stroke-width="8.5075" stroke-linecap="round"/>
</svg>
