<svg width="148" height="296" viewBox="0 0 148 296" fill="none" xmlns="http://www.w3.org/2000/svg">
<path d="M63.7852 8.17318C63.9152 9.21339 67.8975 7.12383 68.6633 6.95365C70.7906 6.48092 72.7989 5.69461 74.9416 5.30504C78.2589 4.70189 82.8457 4.21841 85.9399 5.93738C89.159 7.72577 91.4557 9.42071 94.07 12.035C96.1926 14.1576 98.86 17.1263 99.5353 20.1652C99.8156 21.4264 100.518 22.5536 100.8 23.8238C101.083 25.0977 101.141 26.7138 101.794 27.8888C103.168 30.3623 103.718 32.6589 105.859 34.7995C107.95 36.8911 108.908 39.2551 108.908 42.1166C108.908 43.9388 108.382 45.6248 107.485 47.2206C106.792 48.4518 106.37 50.9256 105.068 51.6696C104.004 52.2779 101.318 55.8801 101.184 56.9542C100.797 60.0533 98.7605 63.3954 98.5765 66.7066C98.4893 68.2764 96.622 65.7832 95.8065 71.3233C95.8065 73.4778 95.8065 72.8622 95.8065 75.3245C95.8065 79.0178 95.6115 81.7202 97.9319 82.8804C101.456 84.6425 105.396 83.8492 108.908 85.4098C111.61 86.6107 113.658 86.7124 117.043 88.5591C119.506 89.9021 121.462 90.435 123.507 92.2525C125.552 94.0699 127.246 94.0776 129.663 96.2536" stroke="white" stroke-width="8.5075" stroke-linecap="round"/>
<path d="M62.973 6.95361C60.763 9.16358 58.1684 10.9677 56.6721 13.661C55.5229 15.7296 55.1542 18.1854 54.1201 20.3684C52.1634 24.4993 52.6515 29.7301 52.4038 34.1897C52.3654 34.8807 51.9256 36.4134 51.5004 36.9449C50.7905 37.8322 49.9647 37.4435 49.9647 38.8645C49.9647 41.5111 49.5582 44.0713 49.5582 46.7915C49.5582 52.0827 53.831 53.8917 55.972 58.1737C58.4519 63.1336 60.5339 66.7241 60.5339 72.4015C60.5339 74.6373 60.5339 76.8731 60.5339 79.1089C60.5339 81.8332 59.0663 83.318 57.2819 85.0033C55.5496 86.6393 52.7758 88.09 50.5745 89.0683C49.1112 89.7187 48.0662 90.9366 46.6901 91.7106C44.6941 92.8334 42.6496 93.9592 40.7053 95.166C36.598 97.7154 31.8162 100.65 27.2228 102.257C25.1137 102.995 22.2466 104.564 19.4766 105.735" stroke="white" stroke-width="8.5075" stroke-linecap="round"/>
<path d="M20.7057 105.487C18.2435 106.41 16.037 108.465 15.5895 109.168C14.6888 110.583 13.3763 111.915 13.3763 113.685C13.3763 117.428 12.9698 121.417 12.9698 125.27C12.9698 135.174 12.1568 144.949 12.1568 154.832C12.1568 158.378 12.1949 161.79 11.547 165.289C11.0744 167.841 10.5307 170.641 10.5307 173.216C10.5307 178.293 8.93633 184.468 10.3275 189.476C11.4892 193.658 10.5307 199.341 10.5307 203.704C10.5307 206.032 10.4446 208.378 10.5307 210.705C10.608 212.792 11.3437 214.984 11.3437 217.119" stroke="white" stroke-width="8.5075" stroke-linecap="round"/>
<path d="M10.5339 213.866C10.5339 219.91 10.3853 226.095 9.11117 231.956C8.43655 235.059 9.35951 238.944 8.29815 241.916C7.82991 243.227 7.7675 245.409 7.68839 246.794C7.57594 248.761 6.79051 250.744 6.49145 252.688C4.8522 263.343 5.24934 295.786 5.24934 285.005" stroke="white" stroke-width="8.5075" stroke-linecap="round"/>
<path d="M6.0625 287.445C12.6587 287.445 19.4753 288.179 25.9814 289.161C33.6294 290.315 41.2535 289.45 48.9266 289.093C62.0026 288.485 75.6797 287.71 88.6741 289.387C91.2869 289.724 94.0579 289.477 96.6913 289.477C99.3772 289.477 102.139 290.188 104.844 290.29C107.643 290.396 110.347 291.103 113.178 291.103C116.226 291.103 119.275 291.103 122.324 291.103C125.871 291.103 129.647 291.441 133.096 290.674C134.957 290.261 140.49 289.071 138.584 289.071" stroke="white" stroke-width="8.5075" stroke-linecap="round"/>
<path d="M128.434 95.0225C132.092 97.9452 132.506 98.4494 133.299 100.631C133.899 102.28 134.609 103.905 135.332 105.532C137.578 110.587 138.169 115.891 138.606 121.363C139.37 130.907 139.397 140.403 139.397 150.045C139.397 173.327 140.02 196.794 143.055 219.558" stroke="white" stroke-width="8.5075" stroke-linecap="round"/>
<path d="M142.242 216.712C142.242 230.177 141.836 243.522 141.836 256.957C141.836 264.138 141.836 271.32 141.836 278.501C141.836 281.971 142.649 285.195 142.649 288.664" stroke="white" stroke-width="8.5075" stroke-linecap="round"/>
</svg>
