<svg width="143" height="301" viewBox="0 0 143 301" fill="none" xmlns="http://www.w3.org/2000/svg">
<path d="M7.39844 289.707C7.61206 291.416 12.936 294.101 14.2165 295.247C15.159 296.09 17.2977 295.673 18.5014 295.673C21.4817 295.673 25.2078 296.306 28.0657 295.436C30.2622 294.767 32.5881 294.519 34.7653 293.873C36.13 293.469 37.9472 292.69 39.3581 292.69C44.9124 292.69 50.6777 291.957 56.3085 291.838C63.2542 291.69 70.1923 290.985 77.1888 290.985C83.8883 290.985 89.9315 291.665 96.4593 293.116C101.846 294.313 107.136 294.82 112.652 294.82C115.603 294.82 118.555 294.82 121.506 294.82C123.274 294.82 125.504 295.216 127.14 294.489C129.134 293.603 130.618 291.678 132.254 290.133C133.689 288.777 136.448 286.923 136.918 284.806C137.673 281.409 138.128 276.653 135.852 273.727C134.22 271.628 131.629 269.664 131.402 266.601C131.05 261.858 129.356 256.964 128.087 252.397C127.441 250.068 126.109 247.868 125.223 245.603C124.302 243.249 122.635 240.979 122.027 238.548C121.544 236.615 120.631 234.578 119.896 232.7C118.711 229.67 118.235 226.322 116.913 223.397C115.372 219.983 113.931 215.176 113.931 211.394C113.931 210.467 113.484 207.9 114.357 207.464" stroke="white" stroke-width="10.209" stroke-linecap="round"/>
<path d="M120.751 76.217C120.751 80.9681 121.854 85.9413 122.787 90.6107C123.519 94.2693 125.013 98.1334 125.013 101.879C125.013 107.936 124.161 113.73 124.161 119.777C124.161 123.82 124.229 127.66 125.107 131.614C125.839 134.907 126.621 138.911 126.717 142.267C126.872 147.685 129.826 152.631 130.126 158.034C130.304 161.233 131.831 164.627 131.831 167.835C131.831 169.471 132.312 171.804 131.073 173.043C127.654 176.462 125.645 177.209 120.751 177.209C117.209 177.209 114.125 181.437 113.933 184.88C113.72 188.726 113.507 192.509 113.507 196.385C113.507 197.939 112.779 201.561 114.36 202.351" stroke="white" stroke-width="10.209" stroke-linecap="round"/>
<path d="M114.355 202.351V209.169" stroke="white" stroke-width="10.209" stroke-linecap="round"/>
<path d="M70.4688 7.61013C71.6988 7.61013 72.743 6.33175 74.0908 6.33175C75.7869 6.33175 77.4492 5.47949 79.2281 5.47949C82.381 5.47949 85.477 5.52637 88.3661 6.97094C90.8667 8.22123 92.0985 9.85147 93.9058 11.8714C95.0594 13.1607 94.5813 14.8771 95.3973 16.3458C96.2913 17.9551 96.9358 19.1627 98.2618 20.4887C101.821 24.048 107.886 27.5283 109.767 32.4203C111.04 35.729 110.951 38.5588 110.951 42.1265C110.951 46.6979 114.151 50.2119 115.544 54.3896C116.853 58.3161 117.309 62.3626 118.527 66.3211C119.422 69.231 120.326 72.3344 120.326 75.3645" stroke="white" stroke-width="10.209" stroke-linecap="round"/>
<path d="M69.6119 7.18384C63.878 7.18384 58.5946 11.1064 53.8452 13.4811C51.6324 14.5875 49.6321 15.8007 47.4533 16.8901C45.4443 17.8946 44.2338 18.5535 41.1293 18.9674C38.8526 18.9674 33.9 18.7183 33.8172 20.2092C33.763 21.1846 35.8546 23.9483 35.0955 24.5555C34.3928 25.1177 33.2418 24.6149 32.4441 25.4127C31.3217 26.535 29.8384 27.9768 29.0351 29.3425C28.081 30.9644 26.2987 33.9567 24.6791 34.8822C18.9016 38.1836 26.1529 42.9346 28.9167 44.4701C30.6758 45.4474 32.7802 46.5143 33.8172 48.3289C34.8159 50.0767 37.0635 51.8907 37.6286 53.8686C38.3269 56.3124 37.975 59.0255 38.5282 61.5152C39.1228 64.1909 40.3624 67.0801 41.4875 69.6116C41.993 70.749 42.3783 71.9396 42.9789 73.0207C43.404 73.7857 43.1714 75.6888 43.8312 76.2166C44.4014 76.6728 45.321 81.7579 45.7488 81.3302" stroke="white" stroke-width="10.209" stroke-linecap="round"/>
<path d="M45.7513 81.3306C45.7513 82.92 44.2909 84.5736 43.2892 85.6865C42.1165 86.9896 41.1153 89.3836 40.5431 91.0368C39.1601 95.0321 37.4978 99.0951 34.9087 102.424C33.5429 104.18 32.6112 106.107 31.8785 108.2C30.828 111.202 30.7152 114.736 29.4637 117.551C27.083 122.908 27.1773 129.218 26.5992 134.999C26.346 137.531 26.9115 140.175 26.5518 142.693C26.2018 145.143 25.7233 147.892 25.7233 150.387C25.7233 153.672 24.871 156.864 24.871 160.164C24.871 163.431 24.871 166.698 24.871 169.965C24.871 174.305 24.871 178.646 24.871 182.986C24.871 185.704 24.871 187.025 23.7461 194.889" stroke="white" stroke-width="10.209" stroke-linecap="round"/>
<path d="M5.26953 288.002C5.53467 283.23 7.0217 277.569 8.70223 273.088C9.93964 269.788 11.912 267.097 13.1529 263.926C14.4238 260.678 16.5765 257.569 18.0534 254.338C19.679 250.782 20.3677 246.554 21.131 242.738C22.1813 237.486 24.3254 199.018 23.7461 194.475" stroke="white" stroke-width="10.209" stroke-linecap="round"/>
</svg>
