<svg width="188" height="293" viewBox="0 0 188 293" fill="none" xmlns="http://www.w3.org/2000/svg">
<path d="M101.82 4.50043C103.724 4.50043 107.646 3.96434 108.697 5.95107C109.678 7.80315 115.018 7.06369 117.025 7.42857C119.989 7.96744 123.214 8.60831 125.998 9.92689C128.515 11.1193 129.382 11.3263 129.382 14.4131C129.382 16.2442 128.226 18.7027 129.006 20.4574C130.144 23.017 131.766 25.2836 133.466 27.4688C135.07 29.532 135.946 32.6799 136.743 35.0713C137.824 38.3144 138.598 41.7409 139.08 45.1183C139.447 47.6886 140.02 50.5002 140.02 53.0699C140.02 55.1617 139.52 57.8789 140.611 59.6246C141.129 60.4527 142.828 60.1082 143.674 60.1082C147.441 60.1082 151.492 59.6635 155.198 60.3499C158.121 60.8911 159.515 61.306 160.92 63.9765C165.285 72.2686 164.469 81.5521 164.681 90.679C164.777 94.7975 167.026 99.3619 169.033 102.875C170.396 105.261 173.455 106.738 174.352 109.43" stroke="white" stroke-width="8.5075" stroke-linecap="round"/>
<path d="M174.356 107.78C174.356 111.551 175.327 116.857 176.881 120.352C177.961 122.783 177.257 126.851 177.257 129.486C177.257 136.757 177.257 144.028 177.257 151.299C177.257 154.549 176.848 157.968 177.848 161.078C178.45 162.95 178.906 164.815 179.567 166.665C180.087 168.12 181.182 169.149 181.609 170.641C182.319 173.126 183.059 174.725 183.059 177.411C183.059 180.749 182.655 183.055 181.716 186.222C179.877 192.43 176.252 197.602 174.356 203.764C173.333 207.086 171.544 210.406 170.272 213.677C169.569 215.486 169.66 217.805 169.493 219.721C169.262 222.381 168.553 225.015 168.553 227.7C168.553 233.559 162.994 235.351 158.613 237.854C155.963 239.368 151.629 243.756 151.629 247.041" stroke="white" stroke-width="8.5075" stroke-linecap="round"/>
<path d="M150.177 244.823C150.177 247.791 148.727 250.583 148.727 253.419C148.727 256.535 148.243 259.541 148.243 262.687C148.243 266.641 147.897 270.705 148.754 274.561C149.15 276.344 153.079 276.721 153.079 278.187C153.079 280.008 144.452 282.71 143.166 282.996C137.459 284.264 132.18 285.441 126.242 285.441C121.646 285.441 116.309 286.408 111.494 286.408C107.955 286.408 103.832 286.499 100.372 287.267C95.9217 288.256 90.9151 287.431 86.3763 287.885C81.7123 288.352 77.0531 288.342 72.3266 288.342C68.4224 288.342 63.2373 287.876 59.647 286.408C57.7188 285.619 55.3027 284.681 53.2266 284.5C51.5475 284.354 48.9997 284.452 47.4509 283.748C45.8658 283.028 43.5944 282.539 41.8633 282.539" stroke="white" stroke-width="8.5075" stroke-linecap="round"/>
<path d="M47.182 177.126C46.5589 177.282 46.5864 179.646 46.2149 180.296C45.5609 181.44 44.9927 182.403 43.7972 183.036C40.9164 184.561 39.4827 187.318 36.3022 188.731C29.2982 191.844 25.5928 197.685 19.8617 202.27C17.6269 204.058 16.5436 206.797 14.5427 208.798C11.5348 211.806 9.72298 217.296 7.90737 221.129C5.72233 225.741 3.36026 236.146 7.15519 240.363C8.59284 241.96 9.80798 245.239 10.8086 247.24C12.1148 249.852 13.3281 253.32 13.8442 256.159C14.3054 258.695 17.0699 261.3 17.2022 263.681C17.3631 266.577 17.0911 269.346 17.7126 272.143C18.2851 274.719 19.0703 277.285 19.6468 279.879C20.3851 283.202 23.7796 283.022 26.3896 283.022C29.8158 283.022 32.5121 282.164 36.0336 283.264C38.3511 283.988 45.7417 283.506 43.3136 283.506" stroke="white" stroke-width="8.5075" stroke-linecap="round"/>
<path d="M38.478 94.4399C38.3795 97.0012 37.0273 99.0817 37.0273 101.693C37.0273 103.824 37.0273 105.955 37.0273 108.087C37.0273 111.113 37.0273 114.14 37.0273 117.167C37.0273 120.116 38.3107 123.343 38.478 126.354C38.6603 129.636 39.8094 132.914 39.9286 136.132C40.0159 138.488 41.2943 140.608 41.3793 142.902C41.4476 144.748 41.7327 146.933 42.2389 148.704C43.3511 152.597 42.0348 156.987 43.206 160.793C44.0329 163.481 43.0201 166.312 44.1731 168.906C44.7251 170.148 43.9995 171.839 44.388 173.15C44.8288 174.638 44.7641 176.06 44.7641 177.61" stroke="white" stroke-width="8.5075" stroke-linecap="round"/>
<path d="M37.0273 94.4398C38.5837 92.6889 38.9038 89.6043 41.8628 89.6043C44.2048 89.6043 46.6258 88.278 48.8473 87.6432C50.3276 87.2203 53.4251 84.543 54.5424 83.4257C56.5326 81.4355 58.5606 79.2463 60.533 77.2739C62.6716 75.1353 65.7016 73.7333 67.9743 71.7131C69.6509 70.2228 71.7852 69.2447 73.535 67.8448C75.3451 66.3967 76.1385 63.619 77.0542 61.5587C78.0971 59.2121 79.0603 56.7871 80.3047 54.5472C81.6162 52.1866 78.6123 50.2698 78.6123 48.2612C78.6123 45.959 78.1287 43.3078 78.1287 40.7662C78.1287 39.5504 79.0308 38.5506 79.0958 37.3814C79.1655 36.1277 79.3074 34.3745 79.8211 33.2444C81.1437 30.3347 78.8968 26.224 80.1703 23.3586C82.1679 18.864 84.2712 12.0876 88.7667 9.4432C89.4712 9.02879 90.3858 7.97907 91.1844 7.88511C92.0561 7.78257 94.0494 7.58292 94.811 7.15979C96.1046 6.44113 99.9242 5.95093 101.339 5.95093" stroke="white" stroke-width="8.5075" stroke-linecap="round"/>
</svg>
