<svg width="143" height="309" viewBox="0 0 143 309" fill="none" xmlns="http://www.w3.org/2000/svg">
<path d="M49.1144 6.9209C49.015 7.71607 45.0679 9.23946 44.2703 9.94846C42.9342 11.1361 42.1884 12.6359 40.94 13.8843C38.6099 16.2144 34.7866 16.6031 33.3711 19.7881C32.2587 22.2908 32.7656 25.5492 32.7656 28.2821C32.7656 30.515 32.4628 32.7475 32.4628 34.9259C32.4628 37.2231 31.8573 39.4148 31.8573 41.6706C31.8573 43.0612 31.2518 44.5886 31.2518 45.9765C31.2518 47.8213 31.7681 48.6512 32.3955 50.2824C33.2908 52.6102 34.6667 55.1641 36.1632 57.1785C37.8983 59.5142 39.4976 62.0719 41.3773 64.2933C44.0269 67.4247 43.9039 73.0547 47.752 75.1925C51.4886 77.2684 56.0779 78.0687 60.3164 78.0687" stroke="white" stroke-width="8.5075" stroke-linecap="round"/>
<path d="M50.6316 6.01276C56.1074 6.01276 61.2479 5.10449 66.745 5.10449C70.6541 5.10449 76.3056 5.69005 79.3935 8.43482C80.636 9.53925 81.6572 10.6986 82.8752 11.9165C83.8793 12.9207 84.0713 14.3078 84.8431 15.4655C85.5929 16.5903 86.3353 17.7471 87.2651 18.7285C90.5408 22.1862 92.0169 27.5998 93.253 32.0498C94.1578 35.3072 93.9258 38.8131 93.9258 42.1754C93.9258 44.4464 94.8341 46.6906 94.8341 49.0042C94.8341 52.8561 94.5313 56.7137 94.5313 60.509C94.5313 61.2487 93.9734 61.4767 94.5313 62.1741C95.0092 62.7715 95.6595 63.0484 96.1965 63.7047C97.0843 64.7898 98.3094 67.8694 98.4671 69.2889C98.6824 71.2267 100.456 72.0776 101.495 73.3761C101.901 73.8837 105.333 76.2523 102.706 76.2523" stroke="white" stroke-width="8.5075" stroke-linecap="round"/>
<path d="M104.827 76.2524C104.827 77.7864 104.5 78.8804 104.238 80.3228C104.113 81.0083 104.035 82.4564 104.372 83.0645C105.025 84.2397 105.684 85.1287 106.576 86.2434C107.293 87.1398 108.25 87.8499 109.065 88.6655C109.729 89.3296 111.054 89.8537 111.42 90.7175C111.836 91.7003 112.945 92.3883 113.304 93.375C113.955 95.1655 115.517 96.7193 116.483 98.3537C119.283 103.092 121.53 108.295 123.295 113.492C125.411 119.723 126.02 126.928 126.02 133.473C126.02 136.625 125.414 139.887 125.414 143.01C125.414 144.049 125.999 149.378 125.111 149.822" stroke="white" stroke-width="8.5075" stroke-linecap="round"/>
<path d="M125.408 147.703C125.408 144.114 125.719 154.875 126.03 158.451C126.351 162.14 126.922 165.78 126.922 169.501C126.922 178.546 128.917 186.943 130.487 195.774C131.914 203.797 131.038 212.042 132.22 220.078C133.178 226.595 133.595 233.155 134.423 239.674C134.819 242.789 134.328 245.962 134.188 249.059C134.135 250.228 133.582 251.297 133.582 252.457" stroke="white" stroke-width="8.5075" stroke-linecap="round"/>
<path d="M135.1 247.007C135.1 254.198 134.494 261.273 134.494 268.503C134.494 273.818 136.074 279.048 137.084 284.246C137.704 287.434 137.362 290.793 138.06 293.934C138.522 296.015 138.43 298.17 138.43 300.292" stroke="white" stroke-width="8.5075" stroke-linecap="round"/>
<path d="M138.129 303.925C130.22 303.925 122.354 304.049 114.514 303.336C106.498 302.608 98.3131 303.925 90.2934 303.925C77.6926 303.925 65.0016 304.301 52.432 303.639C47.0523 303.356 41.5469 303.32 36.1672 303.32C33.1172 303.32 30.0672 303.32 27.0172 303.32C25.9664 303.32 24.1069 303.671 23.6869 302.411" stroke="white" stroke-width="8.5075" stroke-linecap="round"/>
<path d="M25.8047 303.32C21.2858 303.32 16.7668 303.32 12.2479 303.32C11.1659 303.32 5.99323 303.964 5.52 303.017" stroke="white" stroke-width="8.5075" stroke-linecap="round"/>
<path d="M29.7422 171.015C29.7422 174.456 27.938 176.829 27.6061 180.148C27.0617 185.592 25.1806 191.048 21.9378 195.538C20.0214 198.192 20.6595 201.658 20.6595 204.772C20.6595 210.221 18.8263 215.149 16.7237 220.129C15.9244 222.022 15.059 223.949 14.3689 225.881C13.8267 227.4 12.7878 229.494 12.7878 231.096C12.7878 235.006 12.4851 239.09 12.4851 243.071C12.4851 249.926 8.77047 255.813 7.79233 262.464C7.09837 267.183 7.64096 272.312 7.64096 277.081C7.64096 277.95 7.68921 278.836 7.64096 279.705C7.61181 280.229 6.78693 280.97 7.03544 281.219" stroke="white" stroke-width="8.5075" stroke-linecap="round"/>
<path d="M7.03125 281.218C7.03125 283.007 6.48979 284.703 6.42574 286.432C6.38899 287.425 6.27735 288.734 5.9716 289.712C5.22174 292.112 4.91195 295.369 4.91195 297.87C4.91195 298.537 5.21979 300.592 4.6092 300.897" stroke="white" stroke-width="8.5075" stroke-linecap="round"/>
<path d="M61.2304 75.9495C62.104 76.9323 61.5104 79.1572 60.9949 80.1881C60.3997 81.3784 61.0802 82.8804 60.4735 83.9725C58.6055 87.335 55.236 88.5437 53.5101 91.9956C51.7401 95.5355 49.7987 99.068 47.6063 102.357C46.5377 103.959 45.5859 105.774 44.4106 107.285C43.4756 108.487 42.3828 109.391 41.6185 110.766C40.3712 113.012 41.8326 115.966 41.5344 118.352C41.0588 122.157 37.5308 124.241 36.7239 127.872C36.132 130.536 36.6097 133.901 36.4212 136.635C36.2313 139.388 35.4696 142.477 34.285 144.978C33.0583 147.568 31.2575 150.828 31.2575 153.758C31.2575 155.406 30.261 155.448 29.7437 156.483" stroke="white" stroke-width="8.5075" stroke-linecap="round"/>
<path d="M29.7399 156.483C29.7399 159.185 29.7399 161.887 29.7399 164.59C29.7399 166.115 29.9725 169.152 29.1344 170.409" stroke="white" stroke-width="8.5075" stroke-linecap="round"/>
</svg>
