<svg width="65" height="79" viewBox="0 0 65 79" fill="none" xmlns="http://www.w3.org/2000/svg">
<path d="M12.6272 6C17.1272 7 19.9186 7.48215 22.5044 8.58519C27.1428 10.5638 31.7381 12.6661 36.1955 15.0259C38.9042 16.4599 41.8775 17.7684 44.7772 18.804C45.2682 18.9794 45.9573 19.5837 46.2884 20.0094C46.6127 20.4264 46.8759 20.4974 47.2779 20.819C48.2932 21.6313 44.0929 21.4667 43.8776 21.4667C38.8882 21.4667 33.8987 21.4667 28.9092 21.4667C25.5214 21.4667 22.0591 22.0289 18.7983 22.942C18.3796 23.0592 16.7297 23.461 16.4235 23.8055C15.9894 24.2939 20.9444 24.5302 21.2271 24.5791C25.2412 25.2739 28.7208 27.7143 32.3994 29.3107C34.9396 30.4131 37.8282 31.6426 40.1535 33.1428C43.4191 35.2496 54.7922 38.3466 58.1219 40.2492C58.6168 40.532 47.5263 40.8605 47.2599 40.8789C43.8159 41.1164 40.2797 40.279 36.8252 40.2492C29.1609 40.1832 14.6433 39.7578 6.14214 40.8789C4.60994 41.4464 15.9665 44.4801 16.1273 44.5C20.6273 46 25.0386 48.1036 28.8012 50.7559C31.6571 52.7691 34.4491 54.7653 37.6528 56.1892C38.764 56.6831 40.0679 56.9872 41.125 57.5745C41.5354 57.8025 41.9499 58.4342 41.4129 58.8518C40.9871 59.183 40.1611 59.0318 39.6678 59.0318C37.6528 59.0318 35.6378 59.0318 33.6228 59.0318C29.0175 59.0318 23.8404 58.3723 19.284 59.2117C18.1048 59.4289 9.99804 60.5261 9.12153 61.5C8.75499 61.9073 19.1944 65.2477 19.6219 65.5C24.1219 67 26.6889 68.643 30.5284 69.9702C33.0715 70.8493 36.8252 71 41.4129 73" stroke="#7E7E7E" stroke-width="12" stroke-linecap="round"/>
</svg>
