<svg width="681" height="681" viewBox="0 0 681 681" fill="none" xmlns="http://www.w3.org/2000/svg">
<path d="M142.539 581.58C142.539 596.328 139.721 640.483 139.721 625.734" stroke="white" stroke-width="10" stroke-linecap="round"/>
<path d="M138.781 628.55C111.035 628.55 82.4234 628.267 54.7519 630.481C41.4647 631.544 1.44306 631.368 14.7727 631.368" stroke="white" stroke-width="10" stroke-linecap="round"/>
<path d="M10.0742 631.366L10.0742 673.642" stroke="white" stroke-width="10" stroke-linecap="round"/>
<path d="M275.941 672.707C251.985 672.707 228.029 672.707 204.073 672.707C174.778 672.707 145.953 675.525 116.651 675.525C80.4979 675.525 33.6675 674.702 9.72369 674.702" stroke="white" stroke-width="10" stroke-linecap="round"/>
<path d="M670.516 672.705C660.163 672.705 649.902 671.765 639.566 671.765C631.37 671.765 622.312 671.55 614.148 670.617C596.707 668.624 579.214 670.826 561.747 670.826C552.918 670.826 543.41 669.796 534.712 671.296C526.46 672.718 516.602 673.644 508.198 673.644C502.179 673.644 496.159 673.644 490.14 673.644C479.974 673.644 468.776 675.027 458.772 673.174C451.639 671.854 443.1 672.015 435.86 671.765C426.701 671.449 417.514 672.065 408.355 671.713C393.009 671.123 377.744 670.826 362.373 670.826C350.175 670.826 338.067 673.644 325.787 673.644C320.138 673.644 314.48 674.584 309.033 674.584C306.295 674.584 289.071 673.174 273.108 673.174" stroke="white" stroke-width="10" stroke-linecap="round"/>
<path d="M672.257 626.798C672.257 636.787 672.041 646.869 674.25 656.533C674.909 659.414 674.41 662.943 674.41 665.9C674.41 667.764 676.608 673.052 674.41 674.151" stroke="white" stroke-width="10" stroke-linecap="round"/>
<path d="M670.824 626.802C657.792 626.802 645.026 624.649 632.04 624.649C625.304 624.649 618.568 624.649 611.831 624.649C601.828 624.649 571.853 626.084 581.856 626.084" stroke="white" stroke-width="10" stroke-linecap="round"/>
<path d="M452.707 580.163C452.707 595.471 451.99 641.39 451.99 626.081" stroke="white" stroke-width="10" stroke-linecap="round"/>
<path d="M453.426 630.384C444.073 630.384 434.862 628.232 425.444 628.232C419.704 628.232 413.964 628.232 408.224 628.232" stroke="white" stroke-width="10" stroke-linecap="round"/>
<path d="M408.224 629.672C408.224 642.776 408.941 656.434 408.941 669.133" stroke="white" stroke-width="10" stroke-linecap="round"/>
<path d="M670.824 583.031C664.393 583.031 657.963 583.031 651.532 583.031C644.652 583.031 638.01 584.356 631.203 584.466C623.031 584.598 615.037 585.901 606.809 585.901C600.298 585.901 593.788 585.901 587.277 585.901C571.353 585.901 523.6 584.466 539.525 584.466" stroke="white" stroke-width="10" stroke-linecap="round"/>
<path d="M539.524 585.905C539.524 595.418 539.524 604.931 539.524 614.445C539.524 616.899 540.119 627.222 538.089 628.236" stroke="white" stroke-width="10" stroke-linecap="round"/>
<path d="M538.09 628.232C527.753 628.232 517.416 628.232 507.079 628.232C504.381 628.232 501.684 628.232 498.987 628.232C498.046 628.232 492.565 628.071 494.323 628.95" stroke="white" stroke-width="10" stroke-linecap="round"/>
<path d="M670.824 362.049C670.824 374.725 670.824 387.4 670.824 400.076C670.824 411.374 669.389 422.52 669.389 433.797C669.389 444.571 667.954 455.273 667.954 466.084C667.954 476.955 668.671 487.896 668.671 498.69C668.671 514.592 669.389 530.49 669.389 546.442C669.389 554.502 670.824 562.482 670.824 570.438C670.824 572.64 671.151 581.435 669.389 582.316" stroke="white" stroke-width="10" stroke-linecap="round"/>
<path d="M670.105 538.551C651.877 538.551 633.574 537.946 615.577 539.946C605.591 541.055 575.395 539.268 585.443 539.268" stroke="white" stroke-width="10" stroke-linecap="round"/>
<path d="M671.539 362.047C661.743 362.047 652.065 359.895 642.481 359.895C637.578 359.895 622.87 359.895 627.773 359.895" stroke="white" stroke-width="10" stroke-linecap="round"/>
<path d="M628.492 361.329C628.492 373.234 628.492 385.139 628.492 397.044C628.492 404.941 627.343 412.593 627.057 420.322C626.671 430.763 627.057 441.28 627.057 451.732" stroke="white" stroke-width="10" stroke-linecap="round"/>
<path d="M627.055 451.035C618.97 451.035 610.684 450.901 602.66 451.793C597.984 452.312 592.987 453.188 588.311 453.188C575.009 453.188 561.724 452.47 548.49 452.47C531.628 452.47 519.075 452.453 497.908 453.188" stroke="white" stroke-width="10" stroke-linecap="round"/>
<path d="M627.773 495.498C610.568 495.498 594.022 499.085 576.832 499.085C569.168 499.085 561.347 499.475 553.873 498.407C549.017 497.714 543.701 497.65 538.806 497.65" stroke="white" stroke-width="10" stroke-linecap="round"/>
<path d="M538.805 496.938C538.805 525.727 538.087 554.256 538.087 583.035" stroke="white" stroke-width="10" stroke-linecap="round"/>
<path d="M538.09 540.703C516.039 540.703 494.014 538.714 472.042 541.46C459.888 542.98 447.833 542.855 435.49 542.855C425.42 542.855 395.285 540.703 405.356 540.703" stroke="white" stroke-width="10" stroke-linecap="round"/>
<path d="M495.759 542.853C495.759 551.516 496.883 560.177 497.951 568.722C498.404 572.343 498.629 575.762 498.629 579.444C498.629 581.615 496.476 583.483 496.476 585.901" stroke="white" stroke-width="10" stroke-linecap="round"/>
<path d="M405.354 542.138C405.354 555.358 406.789 568.354 406.789 581.6" stroke="white" stroke-width="10" stroke-linecap="round"/>
<path d="M407.508 585.901C398.061 585.901 388.614 585.901 379.167 585.901C376.417 585.901 373.667 585.901 370.916 585.901C369.256 585.901 362.551 585.346 364.459 586.618" stroke="white" stroke-width="10" stroke-linecap="round"/>
<path d="M362.305 585.905C362.305 592.176 362.305 598.447 362.305 604.719C362.305 606.361 363.228 612.375 362.146 613.727C359.546 616.977 360.153 624.767 360.153 628.954" stroke="white" stroke-width="10" stroke-linecap="round"/>
<path d="M360.871 631.819C353.044 631.819 344.374 632.817 336.835 631.142C330.41 629.714 310.523 630.384 317.105 630.384" stroke="white" stroke-width="10" stroke-linecap="round"/>
<path d="M317.105 630.387C317.105 620.356 317.105 610.324 317.105 600.293C317.105 595.031 318.047 588.728 316.388 583.751" stroke="white" stroke-width="10" stroke-linecap="round"/>
<path d="M317.105 584.468C300.125 584.468 283.145 584.468 266.164 584.468C259.813 584.468 253.462 584.468 247.111 584.468C244.817 584.468 232.07 585.876 231.008 583.751" stroke="white" stroke-width="10" stroke-linecap="round"/>
<path d="M273.337 626.798C273.337 642.329 274.055 658.038 274.055 673.434" stroke="white" stroke-width="10" stroke-linecap="round"/>
<path d="M274.773 626.082C262.694 626.082 250.071 625.061 238.182 626.759C231.032 627.781 223.167 628.234 215.94 628.234C210.635 628.234 205.07 628.234 199.836 628.234C195.549 628.234 188.881 629.413 185.088 627.516" stroke="white" stroke-width="10" stroke-linecap="round"/>
<path d="M185.806 539.984C185.806 557.629 186.524 575.16 186.524 592.759C186.524 599.196 186.988 605.771 185.846 612.051C185.381 614.608 186.329 617.194 185.248 619.625C184.614 621.051 184.371 625.264 184.371 626.799" stroke="white" stroke-width="10" stroke-linecap="round"/>
<path d="M362.305 539.984C320.773 539.984 279.118 539.037 237.822 542.096C214.606 543.816 191.067 541.419 167.867 541.419C158.415 541.419 148.848 540.66 139.527 539.226C129.24 537.644 118.751 537.831 108.316 537.831" stroke="white" stroke-width="10" stroke-linecap="round"/>
<path d="M231.723 493.349C231.723 509.325 230.288 524.831 230.288 540.703" stroke="white" stroke-width="10" stroke-linecap="round"/>
<path d="M277.641 451.735C274.494 451.735 271.72 450.809 268.672 450.34C263.481 449.542 257.994 449.617 252.887 448.507C247.467 447.328 241.193 448.148 235.668 448.148C230.287 448.148 224.906 448.148 219.525 448.148C212.049 448.148 204.687 451.018 197.283 451.018C193.21 451.018 181.013 451.735 185.085 451.735" stroke="white" stroke-width="10" stroke-linecap="round"/>
<path d="M185.805 446.714C185.805 456.575 184.37 466.196 184.37 476.091C184.37 487.031 183.652 497.983 183.652 508.976C183.652 520.232 185.805 531.274 185.805 542.139" stroke="white" stroke-width="10" stroke-linecap="round"/>
<path d="M99.7053 492.629C99.7053 514.818 99.7053 537.007 99.7053 559.196C99.7053 562.862 101.949 584.063 98.2703 585.902" stroke="white" stroke-width="10" stroke-linecap="round"/>
<path d="M496.473 494.063C473.739 494.063 451.76 497.651 429.029 497.651C415.252 497.651 401.378 495.498 387.575 495.498C378.802 495.498 370.337 494.781 361.586 494.781" stroke="white" stroke-width="10" stroke-linecap="round"/>
<path d="M362.305 494.783C360.028 495.637 361.587 511.39 361.587 514.115C361.587 518.62 361.587 523.124 361.587 527.628C361.587 531.508 361.587 535.387 361.587 539.267" stroke="white" stroke-width="10" stroke-linecap="round"/>
<path d="M494.406 401.887C494.406 412.157 493.982 422.096 493.68 432.361C493.597 435.213 494.406 440.343 495.131 445.422C495.755 451.952 495.131 449.05 495.131 454.129C495.131 460.659 495.755 468.329 495.755 474.361C495.755 480.76 496.473 487.221 496.473 493.733" stroke="white" stroke-width="10" stroke-linecap="round"/>
<path d="M319.258 405.096V497.651" stroke="white" stroke-width="10" stroke-linecap="round"/>
<path d="M317.82 496.216C312.635 496.216 307.944 494.063 302.793 494.063C298.648 494.063 294.41 493.346 290.157 493.346C286.615 493.346 283.63 493.235 280.511 494.621C278.575 495.482 273.593 493.551 272.619 495.498" stroke="white" stroke-width="10" stroke-linecap="round"/>
<path d="M454.145 450.297C425.849 450.297 397.767 451.014 369.522 451.014C358.709 451.014 348.139 451.732 337.354 451.732C334.431 451.732 331.508 451.732 328.585 451.732C327.361 451.732 319.971 451.727 320.693 452.449" stroke="white" stroke-width="10" stroke-linecap="round"/>
<path d="M408.226 404.382C408.226 412.268 408.475 420.428 410.219 428.058C410.218 435.264 410.219 440.573 410.219 446.873" stroke="white" stroke-width="10" stroke-linecap="round"/>
<path d="M447.969 405.873C439.598 405.873 431.228 405.873 422.857 405.873C418.687 405.873 412.276 404.706 408.507 406.59" stroke="white" stroke-width="10" stroke-linecap="round"/>
<path d="M451.992 361.329C451.992 376.746 449.122 391.893 449.122 407.248" stroke="white" stroke-width="10" stroke-linecap="round"/>
<path d="M582.574 361.329C574.053 361.329 565.565 363.482 557.064 363.482C549.744 363.482 542.592 364.199 535.26 364.199C521.6 364.199 508.117 365.634 494.483 365.634C480.559 365.634 438.786 365.634 452.71 365.634" stroke="white" stroke-width="10" stroke-linecap="round"/>
<path d="M495.04 362.046C495.04 351.337 495.04 340.628 495.04 329.919C495.04 327.769 493.965 318.459 495.758 317.562" stroke="white" stroke-width="10" stroke-linecap="round"/>
<path d="M584.009 273.082C584.009 301.408 590.42 329.611 584.168 357.744C580.711 373.302 584.009 390.767 584.009 406.533" stroke="white" stroke-width="10" stroke-linecap="round"/>
<path d="M583.289 407.25C578.625 407.25 573.962 407.25 569.298 407.25C564.829 407.25 560.477 408.561 556.025 408.685C550.048 408.851 532.74 411.359 538.088 408.685" stroke="white" stroke-width="10" stroke-linecap="round"/>
<path d="M672.258 319.715C663.459 319.715 654.926 317.562 646.07 317.562C638.824 317.562 631.438 318.28 624.346 318.28C612.574 318.28 600.802 318.28 589.03 318.28" stroke="white" stroke-width="10" stroke-linecap="round"/>
<path d="M632.266 273.461H583.477" stroke="white" stroke-width="10" stroke-linecap="round"/>
<path d="M408.941 362.766C391.35 362.766 374.051 360.613 356.565 360.613C347.65 360.613 338.947 359.896 330.018 359.896C326.577 359.896 323.283 359.178 319.974 359.178C318.575 359.178 312.013 359.336 316.386 358.461" stroke="white" stroke-width="10" stroke-linecap="round"/>
<path d="M361.59 362.049C361.59 370.276 363.025 378.279 363.025 386.443C363.025 393.125 363.742 400.333 363.742 407.25" stroke="white" stroke-width="10" stroke-linecap="round"/>
<path d="M320.691 407.968C312.528 407.968 304.973 405.816 296.855 405.816C289.49 405.816 267.408 406.533 274.773 406.533" stroke="white" stroke-width="10" stroke-linecap="round"/>
<path d="M274.055 407.248C274.055 396.486 273.337 385.795 273.337 375.121C273.337 372.721 272.146 362.283 274.055 361.329" stroke="white" stroke-width="10" stroke-linecap="round"/>
<path d="M274.773 361.329C266.611 361.329 258.426 362.047 250.379 362.047C246.759 362.047 242.95 363.482 239.258 363.482C235.551 363.482 224.43 363.482 228.137 363.482" stroke="white" stroke-width="10" stroke-linecap="round"/>
<path d="M228.854 316.848C228.854 324.316 228.854 331.783 228.854 339.25C228.854 349.218 227.419 359.127 227.419 369.065C227.419 380.629 224.854 393.398 226.861 404.939C229.289 418.901 230.289 432.537 230.289 446.713" stroke="white" stroke-width="10" stroke-linecap="round"/>
<path d="M186.521 271.647C186.521 287.265 187.238 302.856 187.238 318.284" stroke="white" stroke-width="10" stroke-linecap="round"/>
<path d="M228.137 317.563C218.567 317.563 209.404 316.128 199.796 316.128C195.734 316.128 191.608 318.281 187.24 318.281" stroke="white" stroke-width="10" stroke-linecap="round"/>
<path d="M318.539 270.927C318.539 300.344 317.822 329.987 317.822 359.178" stroke="white" stroke-width="10" stroke-linecap="round"/>
<path d="M317.105 318.282H273.339" stroke="white" stroke-width="10" stroke-linecap="round"/>
<path d="M452.707 318.281C443.632 318.281 434.557 318.281 425.483 318.281C422.731 318.281 404.405 316.59 403.201 318.999" stroke="white" stroke-width="10" stroke-linecap="round"/>
<path d="M403.919 318.999C403.919 314.49 402.822 274.516 406.789 274.516" stroke="white" stroke-width="10" stroke-linecap="round"/>
<path d="M406.789 274.516H361.588" stroke="white" stroke-width="10" stroke-linecap="round"/>
<path d="M362.306 227.881C362.306 248.168 363.023 268.316 363.023 288.508C363.023 294.423 362.623 300.379 362.306 306.086C362.033 311.003 360.871 315.536 360.871 320.436" stroke="white" stroke-width="10" stroke-linecap="round"/>
<path d="M364.457 230.748C358.298 230.748 352.255 230.601 346.161 230.071C343.331 229.825 335.536 230.427 333.446 228.755C332.1 227.679 326.453 227.878 324.637 227.878C322.114 227.878 314.581 227.161 317.103 227.161" stroke="white" stroke-width="10" stroke-linecap="round"/>
<path d="M318.539 232.186C318.539 212.413 316.387 192.84 316.387 173.033C316.387 166.098 316.387 159.162 316.387 152.226C316.387 149.477 315.361 144.995 318.539 143.936" stroke="white" stroke-width="10" stroke-linecap="round"/>
<path d="M407.508 185.548C397.575 185.548 387.647 186.266 377.772 186.266C368.925 186.266 360.245 187.701 351.504 187.701C340.984 187.701 309.454 186.266 319.975 186.266" stroke="white" stroke-width="10" stroke-linecap="round"/>
<path d="M408.223 185.548C408.223 194.844 406.788 203.882 406.788 213.171C406.788 218.792 406.788 224.412 406.788 230.032" stroke="white" stroke-width="10" stroke-linecap="round"/>
<path d="M538.09 230.75C531.841 230.75 525.695 230.032 519.435 230.032C513.253 230.032 507.075 230.266 500.94 229.474C492.753 228.418 483.932 229.315 475.669 229.315C469.448 229.315 460.866 230.82 454.902 228.956C451.601 227.925 445.73 227.88 442.266 227.88C438.294 227.88 434.443 227.162 430.468 227.162C428.063 227.162 425.269 227.554 422.894 227.123C417.396 226.123 411.715 226.445 406.073 226.445" stroke="white" stroke-width="10" stroke-linecap="round"/>
<path d="M451.992 230.035V274.519" stroke="white" stroke-width="10" stroke-linecap="round"/>
<path d="M497.191 275.236C480.964 275.236 465.235 276.671 449.12 276.671" stroke="white" stroke-width="10" stroke-linecap="round"/>
<path d="M538.807 230.035C538.807 250.996 539.525 272.167 539.525 293.014C539.525 301.069 540.242 309.369 540.242 317.568" stroke="white" stroke-width="10" stroke-linecap="round"/>
<path d="M319.258 273.796C312.322 273.796 305.386 273.796 298.451 273.796C289.608 273.796 280.779 275.948 271.904 275.948C257.059 275.948 212.575 273.796 227.42 273.796" stroke="white" stroke-width="10" stroke-linecap="round"/>
<path d="M225.983 273.799C225.983 264.352 225.983 254.905 225.983 245.458C225.983 242.818 224.759 229.315 227.418 229.315" stroke="white" stroke-width="10" stroke-linecap="round"/>
<path d="M187.238 362.767C171.452 362.767 124.098 362.049 139.884 362.049" stroke="white" stroke-width="10" stroke-linecap="round"/>
<path d="M187.238 364.203C187.238 379.207 189.391 393.738 189.391 408.687" stroke="white" stroke-width="10" stroke-linecap="round"/>
<path d="M189.391 408.684C168.296 408.684 147.321 409.9 126.332 411.514C116.484 412.272 86.9582 408.684 96.8355 408.684" stroke="white" stroke-width="10" stroke-linecap="round"/>
<path d="M140.605 412.272C140.605 421.599 140.605 430.927 140.605 440.254C140.605 449.819 143.475 459.367 143.475 468.953C143.475 473.9 144.193 478.655 144.193 483.662C144.193 485.771 144.453 493.218 142.758 494.065" stroke="white" stroke-width="10" stroke-linecap="round"/>
<path d="M98.2711 316.128C98.2711 324.682 98.8562 333.391 97.3941 341.798C96.1864 348.743 96.0642 355.853 95.2417 362.844C94.7926 366.662 93.384 370.615 93.2487 374.404C93.0062 381.192 92.8912 388.259 93.2487 395.051C93.4809 399.463 94.6836 403.587 94.6836 407.966" stroke="white" stroke-width="10" stroke-linecap="round"/>
<path d="M100.426 316.129C95.4034 316.129 90.381 316.129 85.3587 316.129C80.7326 316.129 75.1881 315.337 70.6104 316.169C67.1283 316.802 63.831 316.846 60.2468 316.846C59.0072 316.846 62.6929 316.833 56.3006 316.886M56.3006 316.886C55.8414 316.988 64.144 316.8 56.3006 316.886Z" stroke="white" stroke-width="10" stroke-linecap="round"/>
<path d="M54.504 316.996C54.504 346.087 54.504 377.869 54.504 406.891C54.504 414.087 55.1799 421.656 54.4642 428.814C53.9596 433.859 53.0691 438.577 53.0691 443.681C53.0691 445.365 53.9257 450.946 52.3516 451.733" stroke="white" stroke-width="10" stroke-linecap="round"/>
<path d="M99.7075 451.732C108.914 451.732 81.3311 450.297 72.1243 450.297C65.2908 450.297 44.8027 451.014 51.6362 451.014" stroke="white" stroke-width="10" stroke-linecap="round"/>
<path d="M53.7891 362.764C43.1464 362.764 32.5038 362.764 21.8611 362.764C16.1067 362.764 10.5642 361.329 5.0003 361.329" stroke="white" stroke-width="10" stroke-linecap="round"/>
<path d="M5.71855 361.329C5.71855 385.949 5.71855 410.57 5.71855 435.19C5.71855 459.376 10.0234 483.429 10.0234 507.695C10.0234 526.041 10.0081 544.299 8.54861 562.543C8.38727 564.56 9.10491 582.773 7.15351 583.748" stroke="white" stroke-width="10" stroke-linecap="round"/>
<path d="M54.5078 583.751C44.8671 583.751 35.1041 584.105 25.6491 584.468C19.9667 584.687 14.3656 585.186 8.58897 585.186" stroke="white" stroke-width="10" stroke-linecap="round"/>
<path d="M52.3541 492.629C52.3541 522.889 53.7891 552.818 53.7891 583.032" stroke="white" stroke-width="10" stroke-linecap="round"/>
<path d="M99.6953 184.942C95.8188 184.942 92.4396 184.943 87.3606 184.942C80.8305 184.958 75.6501 184.942 71.398 184.942C65.4057 184.942 66.5155 184.942 54.7099 184.942" stroke="white" stroke-width="10" stroke-linecap="round"/>
<path d="M53.7869 184.828C53.7869 193.199 55.2218 201.966 55.2218 210.337C55.2218 216.166 54.951 221.926 55.2218 227.75C55.4628 232.931 55.2218 237.746 55.2218 242.944C55.2218 249.668 56.16 256.048 56.16 263.303C56.16 270.559 56.1602 272.753 56.1602 277.815C56.1602 280.768 56.16 284.345 56.16 287.973C56.16 293.777 55.3456 296.729 55.2218 301.06C55.1517 303.515 54.7089 307.563 54.7089 310.466C54.7089 314.093 54.7089 316.996 54.7089 320.624" stroke="white" stroke-width="10" stroke-linecap="round"/>
<path d="M99.707 186.982C99.707 205.987 97.5546 224.612 97.5546 243.624C97.5546 249.004 96.8371 254.138 96.8371 259.448C96.8371 263.412 96.1196 260.081 96.8371 271.285" stroke="white" stroke-width="10" stroke-linecap="round"/>
<path d="M143.957 270.933C139.585 270.933 136.701 270.935 131.622 270.935C125.818 270.935 122.167 270.933 118.204 270.933C111.082 270.933 103.96 270.933 96.8386 270.933" stroke="white" stroke-width="10" stroke-linecap="round"/>
<path d="M144.68 272.01C144.68 281.816 144.68 291.621 144.68 301.427C144.68 306.44 143.245 311.371 143.245 316.494" stroke="white" stroke-width="10" stroke-linecap="round"/>
<path d="M143.473 140.347C130.119 140.347 116.958 139.601 103.652 138.952C88.2405 138.2 72.6515 138.912 57.2154 138.912C41.0902 138.912 25.4109 136.759 9.30354 136.759" stroke="white" stroke-width="10" stroke-linecap="round"/>
<path d="M9.30508 136.759C9.30508 168 9.93335 198.765 12.733 229.872C14.1387 245.49 11.4575 260.97 11.4575 276.509C11.4575 291.991 7.37078 307.418 7.15263 322.906C7.04999 330.194 5.55823 335.135 5.55823 347.47C7.15263 356.816 5.55823 358.344 5.55823 360.53" stroke="white" stroke-width="10" stroke-linecap="round"/>
<path d="M7.15097 7.61328C7.15097 35.1778 6.43349 62.5574 6.43349 90.0838C6.43349 103.012 6.43349 115.94 6.43349 128.868C6.43349 135.087 8.58594 140.651 8.58594 146.805" stroke="white" stroke-width="10" stroke-linecap="round"/>
<path d="M97.556 10.4814C97.556 31.2981 96.8128 52.2537 97.556 73.0618C97.7364 78.1153 98.2734 83.1817 98.2734 88.3282C98.2734 92.8764 96.8385 97.3004 96.8385 101.602" stroke="white" stroke-width="10" stroke-linecap="round"/>
<path d="M97.5547 100.886C82.4857 100.886 37.2843 100.169 52.3533 100.169" stroke="white" stroke-width="10" stroke-linecap="round"/>
<path d="M48.0494 100.166C48.0494 89.6564 48.0494 79.1466 48.0494 68.6368C48.0494 64.7978 47.9045 61.055 48.6075 57.2767C48.9095 55.6532 48.0063 51.399 49.4844 50.6599" stroke="white" stroke-width="10" stroke-linecap="round"/>
<path d="M275.285 6.50691C245.56 6.50691 215.256 4.75437 185.759 8.49992C173.097 10.1078 159.261 8.65936 146.497 8.65936C133.729 8.65936 120.964 9.37684 108.152 9.37684C98.8156 9.37684 89.2457 7.14565 79.9706 5.94887C69.7283 4.62728 59.2132 5.07195 48.8798 5.07195C34.8624 5.07195 21.0281 6.50691 6.94692 6.50691" stroke="white" stroke-width="10" stroke-linecap="round"/>
<path d="M406.789 54.9664C377.851 54.9664 348.912 54.9664 319.974 54.9664C304.3 54.9664 288.975 52.814 273.337 52.814" stroke="white" stroke-width="10" stroke-linecap="round"/>
<path d="M272.301 53.6133C272.301 46.8048 272.3 41.2786 272.301 33.8396C272.301 28.2183 270.467 23.28 270.467 18.7859C270.467 14.6614 270.467 13.7069 270.467 7.17676" stroke="white" stroke-width="10" stroke-linecap="round"/>
<path d="M453.773 7.88614C440.473 7.88614 426.958 8.58429 413.674 7.84628C403.855 7.30075 395.002 7.20851 382.822 7.52739C375.412 7.20851 369.595 6.8625 363.077 7.84628C355.816 8.94228 348.654 8.60362 341.31 8.60362C334.215 8.60362 327.061 8.60362 319.963 8.60362C313.451 8.60362 306.762 7.6166 300.232 7.20851C290.671 6.61095 281.153 6.45117 271.533 6.45117" stroke="white" stroke-width="10" stroke-linecap="round"/>
<path d="M453.426 8.62793C452.324 20.9626 453.426 38.3139 453.426 50.6597" stroke="white" stroke-width="10" stroke-linecap="round"/>
<path d="M231.723 51.3799C200.596 51.3799 169.585 52.0974 138.45 52.0974" stroke="white" stroke-width="10" stroke-linecap="round"/>
<path d="M139.168 54.248C139.168 67.0299 139.168 79.8117 139.168 92.5935C139.168 104.62 142.038 116.468 142.038 128.468C142.038 136.315 143.473 143.967 143.473 151.826C143.473 157.379 143.473 162.933 143.473 168.487C143.473 181.946 142.755 195.344 142.755 208.865C142.755 215.574 140.543 223.394 142.755 230.031" stroke="white" stroke-width="10" stroke-linecap="round"/>
<path d="M185.805 230.031C177.327 230.031 169.591 227.161 161.091 227.161C154.852 227.161 148.588 228.596 142.756 228.596" stroke="white" stroke-width="10" stroke-linecap="round"/>
<path d="M187.238 96.5808L139.167 96.5808" stroke="white" stroke-width="10" stroke-linecap="round"/>
<path d="M187.24 141.781C187.24 155.655 187.957 197.269 187.957 183.395" stroke="white" stroke-width="10" stroke-linecap="round"/>
<path d="M275.488 186.983C261.307 186.983 247.333 187.701 233.157 187.701C216.639 187.701 167.133 185.548 183.651 185.548" stroke="white" stroke-width="10" stroke-linecap="round"/>
<path d="M231.723 138.193C221.37 138.193 211.146 139.628 200.871 139.628C196.082 139.628 181.732 140.346 186.521 140.346" stroke="white" stroke-width="10" stroke-linecap="round"/>
<path d="M231.723 140.349C231.723 128.405 231.723 116.46 231.723 104.515C231.723 95.1597 233.875 85.8675 233.875 76.4934C233.875 68.8402 233.875 61.1871 233.875 53.5339" stroke="white" stroke-width="10" stroke-linecap="round"/>
<path d="M408.223 98.7324C369.477 98.7324 330.748 98.0149 292.07 98.0149C280.325 98.0149 268.579 98.0149 256.834 98.0149C247.633 98.0149 238.669 99.4499 229.57 99.4499" stroke="white" stroke-width="10" stroke-linecap="round"/>
<path d="M451.273 142.497C416.008 142.497 381.057 139.627 345.804 139.627C337.403 139.627 329.136 141.062 320.692 141.062C314.893 141.062 309.109 141.467 303.472 141.78C293.438 142.337 283.454 142.497 273.338 142.497" stroke="white" stroke-width="10" stroke-linecap="round"/>
<path d="M275.491 143.936C275.491 170.36 276.924 197.405 274.016 223.576C273.042 232.339 273.338 241.252 273.338 250.123C273.338 256.748 274.773 262.961 274.773 269.495" stroke="white" stroke-width="10" stroke-linecap="round"/>
<path d="M450.555 98.0149C450.555 109.548 450.555 121.081 450.555 132.613C450.555 140.658 449.952 148.162 449.16 156.091C448.178 165.907 447.685 175.618 447.685 185.548" stroke="white" stroke-width="10" stroke-linecap="round"/>
<path d="M629.207 186.263C619.023 186.263 608.768 186.054 598.754 188.057C590.851 189.638 582.01 189.851 573.961 189.851C556.28 189.851 538.416 189.516 520.867 187.539C504.942 185.745 488.836 186.263 472.796 186.263C464.599 186.263 456.665 184.828 448.402 184.828" stroke="white" stroke-width="10" stroke-linecap="round"/>
<path d="M583.289 192.005C583.289 199.493 582.572 206.664 582.572 214.087C582.572 219.723 581.137 225.011 581.137 230.749" stroke="white" stroke-width="10" stroke-linecap="round"/>
<path d="M584.008 95.8608C584.008 111.184 582.201 124.823 582.201 139.956" stroke="white" stroke-width="10" stroke-linecap="round"/>
<path d="M581.855 140.347C563.024 140.347 544.445 141.782 525.607 141.782C515.298 141.782 514.723 141.782 495.04 141.782" stroke="white" stroke-width="10" stroke-linecap="round"/>
<path d="M495.758 141.784C495.758 126.843 495.04 112.135 495.04 97.3005" stroke="white" stroke-width="10" stroke-linecap="round"/>
<path d="M540.242 52.8148C510.343 52.8148 472.957 51.4365 453.776 51.4365" stroke="white" stroke-width="10" stroke-linecap="round"/>
<path d="M538.805 52.0942V95.8606" stroke="white" stroke-width="10" stroke-linecap="round"/>
<path d="M584.727 96.5804C569.418 96.5804 558.984 95.6964 538.808 97.2979" stroke="white" stroke-width="10" stroke-linecap="round"/>
<path d="M672.172 12.2558C660.945 12.2558 647.541 11.4898 636.313 11.4898C625.625 11.4898 615.052 8.61983 604.346 8.61983C581.355 8.61983 558.182 7.90234 535.109 7.90234C506.169 7.90234 472.317 7.90234 454.5 7.90234" stroke="white" stroke-width="10" stroke-linecap="round"/>
<path d="M672.178 12.2556C672.178 27.8485 673.621 39.4882 673.621 55.0643" stroke="white" stroke-width="10" stroke-linecap="round"/>
<path d="M673.691 54.968C642.971 54.968 612.612 57.1205 581.854 57.1205" stroke="white" stroke-width="10" stroke-linecap="round"/>
<path d="M672.258 98.7349L628.491 98.7349" stroke="white" stroke-width="10" stroke-linecap="round"/>
<path d="M629.207 98.7349C629.207 109.111 628.49 119.415 628.49 129.746C628.49 131.833 628.083 143.063 626.337 143.936" stroke="white" stroke-width="10" stroke-linecap="round"/>
<path d="M672.977 231.469C662.34 231.469 652.065 232.904 641.407 232.904C636.624 232.904 622.275 232.904 627.058 232.904" stroke="white" stroke-width="10" stroke-linecap="round"/>
<path d="M672.257 100.883C672.257 123.603 677.441 146.165 674.968 169.044C672.951 187.701 670.105 205.384 670.105 224.29C670.105 236.768 669.388 249.154 669.388 261.599C669.388 269.895 668.19 279.306 669.946 287.428C671.97 296.793 671.54 325.709 671.54 316.128" stroke="white" stroke-width="10" stroke-linecap="round"/>
</svg>
