<svg width="1047" height="1048" viewBox="0 0 1047 1048" fill="none" xmlns="http://www.w3.org/2000/svg">
<path d="M218.648 895.261C218.648 917.956 214.311 985.903 214.311 963.208" stroke="white" stroke-width="15.3884" stroke-linecap="round"/>
<path d="M212.867 967.54C170.17 967.54 126.142 967.106 83.5598 970.512C63.113 972.148 1.52628 971.877 22.0385 971.877" stroke="white" stroke-width="15.3884" stroke-linecap="round"/>
<path d="M14.8086 971.875L14.8086 1036.93" stroke="white" stroke-width="15.3884" stroke-linecap="round"/>
<path d="M423.934 1035.49C387.069 1035.49 350.204 1035.49 313.34 1035.49C268.259 1035.49 223.903 1039.83 178.812 1039.83C123.178 1039.83 51.114 1038.56 14.2683 1038.56" stroke="white" stroke-width="15.3884" stroke-linecap="round"/>
<path d="M1035 1037C1019.07 1037 999.401 1034.04 983.494 1034.04C970.882 1034.04 956.944 1033.71 944.381 1032.28C917.542 1029.21 890.623 1032.6 863.744 1032.6C850.157 1032.6 835.527 1031.01 822.141 1033.32C809.442 1035.51 794.274 1036.93 781.341 1036.93C772.078 1036.93 762.815 1036.93 753.552 1036.93C737.909 1036.93 720.677 1039.06 705.283 1036.21C694.307 1034.18 681.165 1034.43 670.024 1034.04C655.931 1033.56 641.793 1034.5 627.698 1033.96C604.084 1033.05 580.594 1032.6 556.941 1032.6C538.17 1032.6 519.537 1036.93 500.64 1036.93C491.948 1036.93 482.883 1036.93 474.5 1036.93C470.287 1036.93 444 1036.93 419 1035" stroke="white" stroke-width="15.3884" stroke-linecap="round"/>
<path d="M1033.8 964.845C1033.8 980.217 1035.5 994 1035.5 1010.5C1035.5 1017 1035.5 1020.45 1035.5 1025C1035.5 1027.87 1035.5 1027.79 1035.5 1035.5" stroke="white" stroke-width="15.3884" stroke-linecap="round"/>
<path d="M1031.59 964.851C1011.54 964.851 991.895 961.539 971.912 961.539C961.546 961.539 951.179 961.539 940.813 961.539C925.42 961.539 879.294 963.747 894.687 963.747" stroke="white" stroke-width="15.3884" stroke-linecap="round"/>
<path d="M695.953 893.081C695.953 916.637 693.651 932.258 697.5 970" stroke="white" stroke-width="15.3884" stroke-linecap="round"/>
<path d="M697.055 970.364C682.662 970.364 668.489 967.051 653.995 967.051C645.163 967.051 636.33 967.051 627.497 967.051" stroke="white" stroke-width="15.3884" stroke-linecap="round"/>
<path d="M627.497 969.267C627.497 989.433 628.602 1010.45 628.602 1029.99" stroke="white" stroke-width="15.3884" stroke-linecap="round"/>
<path d="M1031.59 897.494C1021.7 897.494 1011.8 897.494 1001.91 897.494C991.319 897.494 981.098 899.533 970.624 899.702C958.047 899.905 945.746 901.91 933.085 901.91C923.066 901.91 913.048 901.91 903.029 901.91C878.524 901.91 811.495 901.91 836 901.91" stroke="white" stroke-width="15.3884" stroke-linecap="round"/>
<path d="M829.547 901.917C829.547 916.556 829.547 931.196 829.547 945.835C829.547 949.612 830.461 965.497 827.339 967.058" stroke="white" stroke-width="15.3884" stroke-linecap="round"/>
<path d="M827.34 967.052C811.433 967.052 795.526 967.052 779.619 967.052C775.468 967.052 776.651 967.052 772.5 967.052C771.052 967.052 767.5 967.052 757.5 967.052" stroke="white" stroke-width="15.3884" stroke-linecap="round"/>
<path d="M1031.59 557.44C1031.59 576.946 1031.59 596.451 1031.59 615.957C1031.59 633.344 1029.38 650.496 1029.38 667.849C1029.38 684.428 1027.18 700.896 1027.18 717.533C1027.18 734.262 1028.28 751.098 1028.28 767.708C1028.28 792.178 1029.38 816.643 1029.38 841.191C1029.38 853.594 1031.59 865.874 1031.59 878.116C1031.59 881.504 1032.1 895.039 1029.38 896.395" stroke="white" stroke-width="15.3884" stroke-linecap="round"/>
<path d="M1027 830.151C998.95 830.151 974.272 828.116 946.578 831.193C931.211 832.901 884.745 830.151 900.206 830.151" stroke="white" stroke-width="15.3884" stroke-linecap="round"/>
<path d="M1032.7 557.437C1017.62 557.437 1002.73 554.125 987.98 554.125C980.435 554.125 978.5 554.125 965.346 554.125" stroke="white" stroke-width="15.3884" stroke-linecap="round"/>
<path d="M966.453 556.332C966.453 574.652 966.453 592.971 966.453 611.291C966.453 623.444 964.685 635.219 964.245 647.112C963.65 663.18 964.245 679.363 964.245 695.447" stroke="white" stroke-width="15.3884" stroke-linecap="round"/>
<path d="M964.242 694.374C951.801 694.374 939.05 694.168 926.703 695.54C919.507 696.339 911.818 697.687 904.622 697.687C884.153 697.687 863.709 696.583 843.345 696.583C817.396 696.583 798.079 696.556 765.507 697.687" stroke="white" stroke-width="15.3884" stroke-linecap="round"/>
<path d="M965.348 762.795C938.872 762.795 913.409 768.315 886.958 768.315C875.164 768.315 863.129 768.916 851.627 767.273C844.154 766.205 835.974 766.107 828.441 766.107" stroke="white" stroke-width="15.3884" stroke-linecap="round"/>
<path d="M828.438 765.011C828.438 809.314 829.5 855.214 829.5 899.5" stroke="white" stroke-width="15.3884" stroke-linecap="round"/>
<path d="M827.34 832.359C793.407 832.359 759.514 829.298 725.703 833.524C707 835.862 688.45 835.671 669.455 835.671C653.959 835.671 651 835.671 623.5 833.524" stroke="white" stroke-width="15.3884" stroke-linecap="round"/>
<path d="M762.197 835.667C762.197 848.999 763.927 862.325 765.571 875.475C766.267 881.047 766.613 886.309 766.613 891.975C766.613 895.316 765.571 901.278 765.571 905" stroke="white" stroke-width="15.3884" stroke-linecap="round"/>
<path d="M623.081 834.567C623.081 854.91 626.5 880.617 626.5 901" stroke="white" stroke-width="15.3884" stroke-linecap="round"/>
<path d="M626.395 901.911C611.857 901.911 597.32 901.911 582.783 901.911C578.551 901.911 574.318 901.911 570.086 901.911C567.532 901.911 557.214 901.058 560.149 903.015" stroke="white" stroke-width="15.3884" stroke-linecap="round"/>
<path d="M556.84 901.917C556.84 911.568 556.84 921.218 556.84 930.869C556.84 933.396 556.589 937 556.594 944.731C556.594 954.5 556.594 965.557 556.594 972" stroke="white" stroke-width="15.3884" stroke-linecap="round"/>
<path d="M554.629 972.572C542.584 972.572 527.601 975.15 516 972.572C506.113 970.375 477.151 970.364 487.28 970.364" stroke="white" stroke-width="15.3884" stroke-linecap="round"/>
<path d="M487.278 970.368C487.278 954.931 487.278 939.495 487.278 924.058C487.278 915.961 488.727 906.261 486.174 898.603" stroke="white" stroke-width="15.3884" stroke-linecap="round"/>
<path d="M486.5 898.603C460.37 898.603 435.021 899.707 408.891 899.707C399.118 899.707 389.345 899.707 379.571 899.707C376.041 899.707 356.426 901.873 354.791 898.603" stroke="white" stroke-width="15.3884" stroke-linecap="round"/>
<path d="M424 965C424 988.666 420 1007.54 420 1031" stroke="white" stroke-width="15.3884" stroke-linecap="round"/>
<path d="M422.137 963.742C403.549 963.742 384.123 962.172 365.828 964.785C354.825 966.357 342.724 967.055 331.602 967.055C323.438 967.055 314.875 967.055 306.821 967.055C300.223 967.055 289.962 968.869 284.126 965.951" stroke="white" stroke-width="15.3884" stroke-linecap="round"/>
<path d="M285.235 831.253C285.235 858.406 286.339 885.382 286.339 912.465C286.339 922.371 287.38 923.848 286.336 939C285.621 942.935 286.339 947.133 284.5 954C283.027 959.5 283.027 962.485 283.027 964.847" stroke="white" stroke-width="15.3884" stroke-linecap="round"/>
<path d="M556.832 831.252C492.922 831.252 428.822 829.795 365.273 834.503C329.549 837.149 293.325 833.46 257.625 833.46C243.079 833.46 228.357 832.293 214.013 830.086C198.183 827.651 174.057 830.086 158 830.086" stroke="white" stroke-width="15.3884" stroke-linecap="round"/>
<path d="M355.891 759.489C355.891 784.074 353.682 807.934 353.682 832.359" stroke="white" stroke-width="15.3884" stroke-linecap="round"/>
<path d="M429 684.5C424.158 684.5 418.19 685.222 413.5 684.5C405.512 683.271 399.5 686.001 389.5 686.001C379.5 686.001 372.002 686.001 363.5 686.001C355.219 686.001 345.281 686.001 337 686.001C325.497 686.001 319.894 686.001 308.5 686.001C302.233 686.001 304.5 687.501 284 686.001" stroke="white" stroke-width="15.3884" stroke-linecap="round"/>
<path d="M283.312 688C283.312 703.175 281.104 717.979 281.104 733.206C281.104 750.041 280 766.893 280 783.81C280 801.131 283.312 818.123 283.312 834.844" stroke="white" stroke-width="15.3884" stroke-linecap="round"/>
<path d="M152.739 758.381C152.739 792.526 152.739 826.671 152.739 860.816C152.739 866.458 155.5 893 150.531 901.913" stroke="white" stroke-width="15.3884" stroke-linecap="round"/>
<path d="M763.297 760.588C728.313 760.588 694.491 766.109 659.513 766.109C638.311 766.109 616.962 762.797 595.721 762.797C582.221 762.797 569.195 761.692 555.729 761.692" stroke="white" stroke-width="15.3884" stroke-linecap="round"/>
<path d="M556.832 761.696C553.329 763.01 555.728 787.251 555.728 791.445C555.728 798.376 555.728 805.307 555.728 812.238C555.728 818.209 555.728 824.179 555.728 830.149" stroke="white" stroke-width="15.3884" stroke-linecap="round"/>
<path d="M760.116 618.745C760.116 634.549 759.465 649.843 759 665.64C758.871 670.027 760.116 677.921 761.233 685.737C762.193 695.786 761.233 691.32 761.233 699.136C761.233 709.184 762.193 720.987 762.193 730.27C762.193 740.117 763.297 750.059 763.297 760.081" stroke="white" stroke-width="15.3884" stroke-linecap="round"/>
<path d="M490.59 627L488.5 763.5" stroke="white" stroke-width="15.3884" stroke-linecap="round"/>
<path d="M488.379 763.9C480.4 763.9 473.926 765.5 466 765.5C459.622 765.5 452.044 763.9 445.5 763.9C440.049 763.9 442 763.9 427 763.9C417 763.9 422.645 765.004 410.5 763.9" stroke="white" stroke-width="15.3884" stroke-linecap="round"/>
<path d="M698.16 693.239C654.617 693.239 611.404 694.343 567.939 694.343C551.301 694.343 535.035 695.447 518.439 695.447C513.941 695.447 509.443 695.447 504.945 695.447C503.061 695.447 491.689 695.44 492.8 696.551" stroke="white" stroke-width="15.3884" stroke-linecap="round"/>
<path d="M627.499 622.583C627.499 634.718 627.499 643.5 627.499 657.5C627.499 668.588 630.566 678.276 630.566 687.97" stroke="white" stroke-width="15.3884" stroke-linecap="round"/>
<path d="M688.656 624.878C675.775 624.878 663.381 622 650.5 622C644.083 622 639.069 622 628.5 622" stroke="white" stroke-width="15.3884" stroke-linecap="round"/>
<path d="M688 557C688 580.723 688 599.871 688 623.5" stroke="white" stroke-width="15.3884" stroke-linecap="round"/>
<path d="M895.793 556.332C882.68 556.332 869.618 559.644 856.537 559.644C845.272 559.644 834.267 560.748 822.985 560.748C801.964 560.748 779.98 559.644 759 559.644C737.573 559.644 726.5 556.5 690.5 556.5" stroke="white" stroke-width="15.3884" stroke-linecap="round"/>
<path d="M761.091 557.436C761.091 540.956 761.091 524.477 761.091 507.997C761.091 504.688 761.091 495 762.195 488.982" stroke="white" stroke-width="15.3884" stroke-linecap="round"/>
<path d="M897.999 420.533C897.999 464.123 907.864 507.523 898.244 550.815C892.924 574.757 897.999 601.631 897.999 625.893" stroke="white" stroke-width="15.3884" stroke-linecap="round"/>
<path d="M896.891 626.997C889.714 626.997 882.537 626.997 875.361 626.997C868.483 626.997 861.786 629.014 854.935 629.205C845.738 629.46 819.104 633.319 827.333 629.205" stroke="white" stroke-width="15.3884" stroke-linecap="round"/>
<path d="M1033.8 492.295C1020.26 492.295 1007.13 488.982 993.502 488.982C982.352 488.982 970.986 490.087 960.072 490.087C941.957 490.087 923.842 490.087 905.727 490.087" stroke="white" stroke-width="15.3884" stroke-linecap="round"/>
<path d="M972.258 421.118H897.18" stroke="white" stroke-width="15.3884" stroke-linecap="round"/>
<path d="M628.602 558.543C601.531 558.543 577.408 557 550.5 557C536.781 557 543.74 557 530 557C524.704 557 521.093 557 516 557C508.5 557 504.326 557.66 487.5 555.23" stroke="white" stroke-width="15.3884" stroke-linecap="round"/>
<path d="M555.735 557.44C555.735 570.1 557.943 582.415 557.943 594.979C557.943 605.261 559.047 616.353 559.047 626.998" stroke="white" stroke-width="15.3884" stroke-linecap="round"/>
<path d="M490.5 624.79C477.938 624.79 468.609 624.79 456.117 624.79C444.784 624.79 410.802 625.894 422.135 625.894" stroke="white" stroke-width="15.3884" stroke-linecap="round"/>
<path d="M419.925 626C419.925 609.439 419.925 593.981 419.925 577.555C419.925 573.862 419.927 572.168 419.923 561.5" stroke="white" stroke-width="15.3884" stroke-linecap="round"/>
<path d="M419.5 559.644C406.939 559.644 397.883 559.645 385.5 559.645C379.929 559.645 373.165 559.645 367.484 559.645C361.78 559.645 344.667 559.645 350.371 559.645" stroke="white" stroke-width="15.3884" stroke-linecap="round"/>
<path d="M351.473 487.883C351.473 499.373 351.473 510.864 351.473 522.355C351.473 537.694 349.264 552.943 349.264 568.236C349.264 586.031 345.317 605.68 348.406 623.44C352.142 644.925 348.409 661.187 348.409 683" stroke="white" stroke-width="15.3884" stroke-linecap="round"/>
<path d="M286.33 418.327C286.33 442.36 287.434 466.352 287.434 490.092" stroke="white" stroke-width="15.3884" stroke-linecap="round"/>
<path d="M351 486.775C336.273 486.775 321.545 486.775 306.76 486.775C300.509 486.775 294.16 490.088 287.438 490.088" stroke="white" stroke-width="15.3884" stroke-linecap="round"/>
<path d="M489.484 417.219C489.484 462.487 488.38 508.103 488.38 553.022" stroke="white" stroke-width="15.3884" stroke-linecap="round"/>
<path d="M487.281 490.09H419.932" stroke="white" stroke-width="15.3884" stroke-linecap="round"/>
<path d="M697.184 489.887C683.219 489.887 669.254 489.887 655.29 489.887C651.056 489.887 633 489.888 621.002 490.991" stroke="white" stroke-width="15.3884" stroke-linecap="round"/>
<path d="M620.873 491.194C620.873 484.254 620.873 434 625.289 422.74" stroke="white" stroke-width="15.3884" stroke-linecap="round"/>
<path d="M625.289 422.74L559 426.5" stroke="white" stroke-width="15.3884" stroke-linecap="round"/>
<path d="M556.5 359.5C556.5 390.719 557.941 413.2 557.941 444.272C557.941 453.375 557.325 462.539 556.837 471.322C556.417 478.888 554.629 485.865 554.629 493.404" stroke="white" stroke-width="15.3884" stroke-linecap="round"/>
<path d="M556.5 359.5C547.022 359.5 548 359.499 533 359.5C526 359.5 528 359.5 517 359.5C511.5 359.5 504.795 359.499 502 359.499C498.118 359.499 486.118 357.999 490 357.999" stroke="white" stroke-width="15.3884" stroke-linecap="round"/>
<path d="M489.484 357.601C489.484 327.175 486.172 297.055 486.172 266.576C486.172 255.903 486.172 245.23 486.172 234.557C486.172 230.327 484.593 223.429 489.484 221.799" stroke="white" stroke-width="15.3884" stroke-linecap="round"/>
<path d="M626.395 285.834C611.11 285.834 595.832 286.938 580.636 286.938C567.022 286.938 553.665 289.146 540.214 289.146C524.025 289.146 475.506 286.938 491.696 286.938" stroke="white" stroke-width="15.3884" stroke-linecap="round"/>
<path d="M627.492 285.834C627.492 300.138 625.284 314.047 625.284 328.341C625.284 336.99 625.284 345.639 625.284 354.287" stroke="white" stroke-width="15.3884" stroke-linecap="round"/>
<path d="M827.5 354.288C817.885 354.288 808.266 354.287 798.634 354.287C789.12 354.287 781.5 354.289 770 354.288C756 354.287 744.215 355.5 731.5 355.5C721.927 355.5 712 354.288 699 354.288C691 354.288 686.331 355.5 681 355.5C674.887 355.5 672.618 355.5 666.5 355.5C662.8 355.5 654.155 356.164 650.5 355.5C642.04 353.962 634.681 354.288 626 354.288" stroke="white" stroke-width="15.3884" stroke-linecap="round"/>
<path d="M694.848 354.292V422.745" stroke="white" stroke-width="15.3884" stroke-linecap="round"/>
<path d="M768.973 421C744.002 421 719.797 423.208 694.999 423.208" stroke="white" stroke-width="15.3884" stroke-linecap="round"/>
<path d="M828.44 354.292C828.44 386.548 829.544 419.126 829.544 451.206C829.544 463.601 830.648 476.373 830.648 488.99" stroke="white" stroke-width="15.3884" stroke-linecap="round"/>
<path d="M489 417.5C478.327 417.5 468.173 417.5 457.5 417.5C443.893 417.5 431.156 417.5 417.5 417.5C394.656 417.5 377.233 415.367 348.5 419.5" stroke="white" stroke-width="15.3884" stroke-linecap="round"/>
<path d="M347.434 419.453C347.434 404.916 347.434 390.379 347.434 375.842C347.434 371.779 345.225 358 347.434 351" stroke="white" stroke-width="15.3884" stroke-linecap="round"/>
<path d="M287.434 558.545C263.141 558.545 190.271 557.44 214.564 557.44" stroke="white" stroke-width="15.3884" stroke-linecap="round"/>
<path d="M287.434 560.754C287.434 583.842 290.746 606.204 290.746 629.208" stroke="white" stroke-width="15.3884" stroke-linecap="round"/>
<path d="M290.746 629.204C258.284 629.204 226.298 628.516 194 631C178.845 632.166 176.681 631 150.5 631" stroke="white" stroke-width="15.3884" stroke-linecap="round"/>
<path d="M215.676 634.726C215.676 649.079 215.676 663.432 215.676 677.785C215.676 692.504 220.093 707.197 220.093 721.948C220.093 729.56 221.197 736.877 221.197 744.582C221.197 747.828 221.597 759.287 218.989 760.591" stroke="white" stroke-width="15.3884" stroke-linecap="round"/>
<path d="M150.529 486.775C150.529 499.937 151.43 513.34 149.18 526.277C147.321 536.963 150.445 552.241 149.18 563C148.489 568.874 149.388 575.67 149.18 581.5C148.807 591.946 148.629 599.047 149.18 609.5C149.537 616.289 150.529 623.261 150.529 630" stroke="white" stroke-width="15.3884" stroke-linecap="round"/>
<path d="M151 486.776C143.271 486.776 138.387 486.776 130.658 486.776C123.539 486.776 115.007 485.557 107.963 486.838C102.604 487.812 97.5304 487.88 92.0149 487.88C90.1074 487.88 95.779 487.859 85.9424 487.942M85.9424 487.942C85.2358 488.099 98.0121 487.809 85.9424 487.942Z" stroke="white" stroke-width="15.3884" stroke-linecap="round"/>
<path d="M83.1804 488.11C83.1804 532.876 83.1804 581.784 83.1804 626.443C83.1804 637.517 84.2205 649.165 83.1191 660.179C82.3426 667.943 80.9722 675.203 80.9722 683.058C80.9722 685.65 81.1812 677.5 80.9722 696.5" stroke="white" stroke-width="15.3884" stroke-linecap="round"/>
<path d="M157.091 697.208C171.259 697.208 128.813 695 114.645 695C104.129 695 72.6013 696.104 83.117 696.104" stroke="white" stroke-width="15.3884" stroke-linecap="round"/>
<path d="M82.0781 558.54C65.7008 558.54 49.3236 558.54 32.9463 558.54C24.0912 558.54 17.5619 558.54 9 558.54" stroke="white" stroke-width="15.3884" stroke-linecap="round"/>
<path d="M8.10595 556.332C8.10595 594.219 8.10595 632.105 8.10595 669.992C8.10595 707.21 14.7305 744.224 14.7305 781.566C14.7305 809.796 14.7069 837.893 12.461 865.967C12.2127 869.071 12.461 886.5 12.461 899" stroke="white" stroke-width="15.3884" stroke-linecap="round"/>
<path d="M83.1836 898.603C68.3482 898.603 53.3245 899.147 38.7748 899.707C30.0305 900.043 23.3893 899.707 14.5 899.707" stroke="white" stroke-width="15.3884" stroke-linecap="round"/>
<path d="M80.9989 759C80.9989 805.565 83.207 851.621 83.207 898.115" stroke="white" stroke-width="15.3884" stroke-linecap="round"/>
<path d="M152.723 284.901C146.757 284.901 141.557 284.903 133.742 284.901C123.693 284.926 115.721 284.901 109.178 284.901C99.9566 284.901 101.664 284.901 83.4975 284.901" stroke="white" stroke-width="15.3884" stroke-linecap="round"/>
<path d="M82.0745 284.726C82.0745 297.607 84.2827 311.098 84.2827 323.979C84.2827 332.95 83.8658 341.814 84.2827 350.776C84.6534 358.748 84.2827 366.158 84.2827 374.157C84.2827 384.504 85.7264 394.321 85.7264 405.486C85.7264 416.652 85.7266 420.028 85.7266 427.817C85.7266 432.362 85.7264 437.866 85.7264 443.449C85.7264 452.381 84.4731 456.922 84.2827 463.588C84.1747 467.365 83.4934 473.595 83.4934 478.061C83.4934 483.644 83.4934 488.11 83.4934 493.693" stroke="white" stroke-width="15.3884" stroke-linecap="round"/>
<path d="M152.738 288.041C152.738 317.286 149.426 345.946 149.426 375.203C149.426 383.482 148.322 391.383 148.322 399.554C148.322 405.654 147.218 400.528 148.322 417.768" stroke="white" stroke-width="15.3884" stroke-linecap="round"/>
<path d="M220.832 417.228C214.104 417.228 209.667 417.231 201.851 417.231C192.919 417.231 187.3 417.228 181.202 417.228C170.243 417.228 159.284 417.228 148.325 417.228" stroke="white" stroke-width="15.3884" stroke-linecap="round"/>
<path d="M221.945 418.885C221.945 433.974 221.945 449.063 221.945 464.152C221.945 471.866 219.737 479.454 219.737 487.338" stroke="white" stroke-width="15.3884" stroke-linecap="round"/>
<path d="M220.086 216.276C199.537 216.276 179.284 215.128 158.809 214.129C135.093 212.973 111.104 214.068 87.3502 214.068C62.5361 214.068 38.4083 210.756 13.6217 210.756" stroke="white" stroke-width="15.3884" stroke-linecap="round"/>
<path d="M10.3124 210C10.3124 258.074 9.31622 307.63 13.6245 355.5C15.7875 379.533 13.6249 403.089 13.6249 427C13.6249 450.825 9.83569 472.166 9.5 496C9.34205 507.214 7.85887 506.519 7.85887 525.5C7.85887 540.5 7.91469 530 7.85887 555.102" stroke="white" stroke-width="15.3884" stroke-linecap="round"/>
<path d="M10.3125 12.0215C10.3125 54.4387 9.20841 96.5715 9.20841 138.93C9.20841 158.824 9.20841 178.718 9.20841 198.612C9.20841 208.183 9.79273 221.5 10.5 231.5" stroke="white" stroke-width="15.3884" stroke-linecap="round"/>
<path d="M149.427 16.4351C149.427 48.4684 148.284 80.7157 149.427 112.736C149.705 120.512 150.531 128.309 150.531 136.228C150.531 143.227 150.531 148.381 150.531 155" stroke="white" stroke-width="15.3884" stroke-linecap="round"/>
<path d="M149.426 155.553C126.237 155.553 56.6796 154.449 79.8683 154.449" stroke="white" stroke-width="15.3884" stroke-linecap="round"/>
<path d="M73.245 154.446C73.245 138.273 73.245 122.1 73.245 105.927C73.245 100.02 73.022 94.26 74.1037 88.4458C74.5685 85.9476 74.1037 85.5 75.4531 78.2637" stroke="white" stroke-width="15.3884" stroke-linecap="round"/>
<path d="M422.926 10.3189C377.183 10.3189 330.55 7.62202 285.16 13.3858C265.675 15.8601 244.384 13.6311 224.742 13.6311C205.094 13.6311 185.451 14.7352 165.735 14.7352C151.368 14.7352 136.642 11.3018 122.369 9.46016C106.608 7.42644 90.4266 8.11072 74.5251 8.11072C52.9546 8.11072 31.666 10.3189 9.99736 10.3189" stroke="white" stroke-width="15.3884" stroke-linecap="round"/>
<path d="M625.289 84.8899C580.758 84.8899 536.226 84.8899 491.695 84.8899C467.576 84.8899 443.993 81.5776 419.929 81.5776" stroke="white" stroke-width="15.3884" stroke-linecap="round"/>
<path d="M418.332 82.8078C418.332 72.3307 418.332 63.8268 418.332 52.3793C418.332 43.7291 415.51 36.1299 415.51 29.2142C415.51 22.8672 415.51 21.3984 415.51 11.3496" stroke="white" stroke-width="15.3884" stroke-linecap="round"/>
<path d="M697.59 12.4411C677.122 12.4411 656.326 13.5154 635.884 12.3797C620.773 11.5403 607.151 11.3983 588.408 11.889C577.004 11.3983 568.052 10.8659 558.023 12.3797C546.849 14.0663 535.828 13.5452 524.527 13.5452C513.609 13.5452 502.601 13.5452 491.678 13.5452C481.657 13.5452 471.363 12.0263 461.315 11.3983C446.602 10.4788 431.956 10.2329 417.152 10.2329" stroke="white" stroke-width="15.3884" stroke-linecap="round"/>
<path d="M697.055 13.583C695.359 32.5641 697.055 59.2649 697.055 78.263" stroke="white" stroke-width="15.3884" stroke-linecap="round"/>
<path d="M355.5 82.5C307.601 82.5 260.271 80.4751 212.359 80.4751" stroke="white" stroke-width="15.3884" stroke-linecap="round"/>
<path d="M213.461 83.7847C213.461 103.454 213.461 123.123 213.461 142.792C213.461 161.299 217.878 179.531 217.878 197.996C217.878 210.072 220.086 221.847 220.086 233.94C220.086 242.487 220.086 251.033 220.086 259.58C220.086 280.29 218.982 300.908 218.982 321.715C218.982 332.038 215.577 344.072 218.982 354.286" stroke="white" stroke-width="15.3884" stroke-linecap="round"/>
<path d="M285.23 354.285C272.185 354.285 263.08 354.286 250 354.286C240.399 354.286 227.475 354.285 218.5 354.285" stroke="white" stroke-width="15.3884" stroke-linecap="round"/>
<path d="M287.434 148.927H213.46" stroke="white" stroke-width="15.3884" stroke-linecap="round"/>
<path d="M287.439 218.484C287.439 239.833 288.543 303.87 288.543 282.521" stroke="white" stroke-width="15.3884" stroke-linecap="round"/>
<path d="M423.238 288.042C401.415 288.042 379.913 289.146 358.097 289.146C332.679 289.146 269.082 288.042 294.5 288.042" stroke="white" stroke-width="15.3884" stroke-linecap="round"/>
<path d="M356.5 216.275C340.569 216.275 324.227 215.171 308.415 215.171C301.045 215.171 283.63 216.275 291 216.275" stroke="white" stroke-width="15.3884" stroke-linecap="round"/>
<path d="M355.891 216.28C355.891 197.899 355.891 179.518 355.891 161.137C355.891 146.741 359.203 132.442 359.203 118.016C359.203 106.239 359.203 94.4625 359.203 82.6855" stroke="white" stroke-width="15.3884" stroke-linecap="round"/>
<path d="M633.918 152.104C574.295 152.104 514.698 151 455.179 151C437.104 151 419.03 151 400.956 151C386.797 151 373.003 153.208 359 153.208" stroke="white" stroke-width="15.3884" stroke-linecap="round"/>
<path d="M691.5 219.5C637.233 219.5 585.69 215.169 531.441 215.169C518.515 215.169 505.793 217.378 492.798 217.378C483.875 217.378 474.975 218 466.3 218.482C450.86 219.34 439.068 218.482 423.5 218.482" stroke="white" stroke-width="15.3884" stroke-linecap="round"/>
<path d="M423.242 221.799C423.242 262.462 425.447 304.08 420.972 344.352C419.474 357.837 419.93 371.553 419.93 385.204C419.93 395.398 422.138 404.959 422.138 415.014" stroke="white" stroke-width="15.3884" stroke-linecap="round"/>
<path d="M692.637 151.134C692.637 168.881 692.637 186.629 692.637 204.376C692.637 216.755 691.71 228.303 690.49 240.504C688.979 255.609 688.22 270.553 688.22 285.833" stroke="white" stroke-width="15.3884" stroke-linecap="round"/>
<path d="M967.551 286.934C951.879 286.934 936.098 286.613 920.688 289.694C908.527 292.127 894.923 292.455 882.536 292.455C855.328 292.455 827.839 291.94 800.834 288.897C776.328 286.136 751.543 286.934 726.86 286.934C714.246 286.934 702.038 284.726 689.321 284.726" stroke="white" stroke-width="15.3884" stroke-linecap="round"/>
<path d="M896.891 295.77C896.891 307.292 895.787 318.328 895.787 329.751C895.787 338.423 893.578 346.561 893.578 355.39" stroke="white" stroke-width="15.3884" stroke-linecap="round"/>
<path d="M898 147.82C898 171.4 895.22 192.387 895.22 215.675" stroke="white" stroke-width="15.3884" stroke-linecap="round"/>
<path d="M894.688 216.277C865.709 216.277 837.119 218.485 808.13 218.485C792.266 218.485 791.382 218.485 761.093 218.485" stroke="white" stroke-width="15.3884" stroke-linecap="round"/>
<path d="M762.195 218.489C762.195 195.497 761.091 172.864 761.091 150.036" stroke="white" stroke-width="15.3884" stroke-linecap="round"/>
<path d="M830.648 81.579C784.639 81.579 727.108 79.458 697.591 79.458" stroke="white" stroke-width="15.3884" stroke-linecap="round"/>
<path d="M830.5 82.5L828.438 147.82" stroke="white" stroke-width="15.3884" stroke-linecap="round"/>
<path d="M897.5 148C873.943 148 859.492 147.567 828.444 150.031" stroke="white" stroke-width="15.3884" stroke-linecap="round"/>
<path d="M1033.67 19.1655C1016.39 19.1655 995.765 17.9867 978.488 17.9867C962.04 17.9867 945.769 13.5704 929.294 13.5704C893.916 13.5704 858.256 12.4663 822.75 12.4663C778.217 12.4663 726.124 12.4663 698.707 12.4663" stroke="white" stroke-width="15.3884" stroke-linecap="round"/>
<path d="M1033.68 19.1655C1033.68 43.1604 1035.9 61.072 1035.9 85.0411" stroke="white" stroke-width="15.3884" stroke-linecap="round"/>
<path d="M1036.01 84.8931C988.735 84.8931 942.017 88.2053 894.685 88.2053" stroke="white" stroke-width="15.3884" stroke-linecap="round"/>
<path d="M1033.8 152.243H966.451" stroke="white" stroke-width="15.3884" stroke-linecap="round"/>
<path d="M967.551 152.243C967.551 168.21 966.447 184.065 966.447 199.964C966.447 203.175 965.822 220.457 963.134 221.8" stroke="white" stroke-width="15.3884" stroke-linecap="round"/>
<path d="M1030 358.707C1013.63 358.707 1002.73 358.707 986.326 358.707C978.966 358.707 979 358.706 964.245 358.707" stroke="white" stroke-width="15.3884" stroke-linecap="round"/>
<path d="M1033.8 155.549C1033.8 190.511 1041.78 225.23 1037.97 260.437C1034.87 289.147 1030.49 316.359 1030.49 345.452C1030.49 364.653 1029.38 383.713 1029.38 402.864C1029.38 415.63 1027.54 430.113 1030.24 442.611C1033.36 457.022 1032.7 501.519 1032.7 486.775" stroke="white" stroke-width="15.3884" stroke-linecap="round"/>
</svg>
