<svg width="330" height="485" viewBox="0 0 330 485" fill="none" xmlns="http://www.w3.org/2000/svg">
<path d="M7.90234 477.587C14.1607 477.587 20.07 479.233 26.285 479.888C32.7571 480.569 38.678 479.663 45.1058 478.975C52.691 478.162 60.5798 479.467 68.0339 480.709C75.6811 481.984 84.2208 482.088 91.9477 481.457C98.7106 480.905 105.47 479.763 112.247 479.541C122.103 479.218 131.838 480.39 141.5 478.5C143.442 478.12 146.048 478.5 148 478.5C151.335 478.5 154.165 478.5 157.5 478.5C160.185 478.5 162.853 478.5 165.5 478.5" stroke="white" stroke-width="5.75673" stroke-linecap="round"/>
<path d="M192.578 477.916C197.342 477.916 201.968 478.01 206.707 478.573C215.653 479.637 224.631 478.07 233.469 476.766C240.011 475.801 246.763 475.616 253.367 475.616C259.193 475.616 264.896 476.532 270.709 476.602C277.632 476.685 284.55 477.587 291.483 477.587C297.288 477.587 303.093 477.587 308.898 477.587C311.863 477.587 314.835 477.259 317.77 477.259C318.647 477.259 321.907 477.782 320.727 476.602" stroke="white" stroke-width="5.75673" stroke-linecap="round"/>
<path d="M4 3.61719C14.6609 3.61719 25.2222 4.40706 35.9021 4.40706C42.1571 4.40706 48.5 4.40706 55 4.40694C60.5 4.40706 63.4116 4.40695 68 4.40695C73.4078 4.40695 75.5 4.40715 83 4.40715C88.5 4.40723 90.5752 4.06888 94 4.40713C96.9874 4.70219 99.9391 4.1151 102.932 4.40706C106.068 4.71309 109.373 4.01627 112.5 4.40715C115.139 4.73707 117.343 4.40715 120 4.40715C121.449 4.40715 125.12 4.40694 130 4.40694" stroke="white" stroke-width="5.75673" stroke-linecap="round"/>
<path d="M68.0787 5C68.0787 14.1593 67.637 23.3542 68.8466 32.4262C69.6828 38.6977 69.6336 45.1087 70.4702 51.3832C71.1411 56.4143 70.4483 71.6858 70.4483 66.6102" stroke="white" stroke-width="5.75673" stroke-linecap="round"/>
<path d="M70.4102 68.0333C65.0881 68.0333 59.7585 67.9584 54.4371 68.0333C51.3962 68.0761 48.3896 68.4282 45.3316 68.4282C44.3997 68.4282 42.1629 68.8232 40 68.8232" stroke="white" stroke-width="5.75673" stroke-linecap="round"/>
<path d="M8.00781 36.6576C16.0312 36.6576 24.013 36.2627 32.0112 36.2627C34.5451 36.2627 39.7653 36.6044 37.2314 36.6044" stroke="white" stroke-width="5.75673" stroke-linecap="round"/>
<path d="M3 4C3 9.64614 3 15.2923 3 20.9384C3 28.8788 4.05183 36.4612 4.97468 44.3055C6.39105 56.3446 5.36962 68.3438 5.36962 80.4203C5.36962 99.1938 5.76456 117.918 5.76456 136.699C5.76456 142.096 5.76456 147.494 5.76456 152.891C5.76456 153.994 6.39208 159.489 5.36962 160" stroke="white" stroke-width="5.75673" stroke-linecap="round"/>
<path d="M8.40234 160.219C19.3923 160.219 30.1936 161.009 41.1821 161.009C50.5046 161.009 59.5755 159.034 68.8277 159.034" stroke="white" stroke-width="5.75673" stroke-linecap="round"/>
<path d="M68.4297 126.65C68.4297 133.13 68.4297 139.609 68.4297 146.089C68.4297 149.467 68.8967 152.521 69.1976 155.831C69.2482 156.388 70.0094 160.251 70.0094 158.245" stroke="white" stroke-width="5.75673" stroke-linecap="round"/>
<path d="M101.184 34.5237C101.184 42.1309 103.139 49.5062 103.139 57.0132C103.139 58.4422 103.465 59.6902 103.465 61.0873C103.465 61.5305 103.465 60.6554 103.465 67.5" stroke="white" stroke-width="5.75673" stroke-linecap="round"/>
<path d="M101.184 33.5457C107.358 33.5457 113.533 33.5457 119.708 33.5457C122.866 33.5457 125.232 33.8716 129.866 33.8716C134.5 33.8716 136.132 33.6592 139 33.8716C140.707 33.9981 141.5 33.8716 144 33.8716C149 33.8716 152.5 32.9662 156.774 32.9662C159.5 32.9662 163.063 32.7243 165.5 32" stroke="white" stroke-width="5.75673" stroke-linecap="round"/>
<path d="M163.762 2.90796C163.762 5.5962 163.761 8 164.558 11.2193C165.355 14.4386 164.967 17.0446 165.5 19.5C166.297 23.1631 166.043 34.0351 166.043 30.2865" stroke="white" stroke-width="5.75673" stroke-linecap="round"/>
<path d="M37.606 94.8003C37.606 98.4105 37.6626 102.032 37.3718 105.63C37.0365 109.779 36.8157 113.949 36.8157 118.113C36.8157 120.503 36.7638 122.896 36.9401 125.276C37.0008 126.096 37.2109 128.549 37.2109 127.727" stroke="white" stroke-width="5.75673" stroke-linecap="round"/>
<path d="M257.5 35.7105C268.623 35.7105 280.73 35.449 291.875 35.449C294.902 35.449 297.929 35.449 300.955 35.449C302.914 35.449 304.5 35.449 307.681 35.7105C314 36.23 325.366 35.7105 322 35.7105" stroke="white" stroke-width="5.75673" stroke-linecap="round"/>
<path d="M257.234 36.7942C257.234 42.3561 257.108 47.9155 257.589 53.4408C258.035 58.5711 258.915 63.7419 258.915 68.9104C258.915 78.5102 259.251 88.0491 259.251 97.6637" stroke="white" stroke-width="5.75673" stroke-linecap="round"/>
<path d="M259 97.3464C264.095 97.3464 269.257 97.3278 274.387 97.3278C276.892 97.3278 279.841 96.8977 282.309 97.3465C284.086 97.6695 285.672 98.0004 287.503 98.0004" stroke="white" stroke-width="5.75673" stroke-linecap="round"/>
<path d="M290.189 64.3704C290.189 76.348 289.663 88.2869 289.853 100.279C289.891 102.667 289.716 105.112 289.856 107.5C290.005 110.033 290.84 111.5 289.855 115.5C289.853 120 289.853 123.968 289.853 128C289.853 135.648 289.853 142.352 289.853 150C289.853 153.905 289.853 156 289.853 164.5" stroke="white" stroke-width="5.75673" stroke-linecap="round"/>
<path d="M225.285 162.232C230.062 162.232 234.866 162.807 239.559 163.746C245.304 164.895 250.85 164.923 256.71 164.923C267.086 164.923 277.501 164.586 287.836 164.586" stroke="white" stroke-width="5.75673" stroke-linecap="round"/>
<path d="M225.953 161.224C225.953 172.051 227.094 182.84 228.905 193.508C230.926 205.412 229.989 217.176 229.989 229.156" stroke="white" stroke-width="5.75673" stroke-linecap="round"/>
<path d="M256.895 194.181C257.058 192.87 274.495 194.181 276.755 194.181C281.232 194.181 285.71 194.181 290.188 194.181" stroke="white" stroke-width="5.75673" stroke-linecap="round"/>
<path d="M291.536 193.508C291.536 200.883 292.335 208.752 291.275 216.04C290.727 219.806 290.527 223.84 290.527 227.642C290.527 237.006 290.864 246.373 290.864 255.704C290.864 266.136 290.864 276.567 290.864 286.999" stroke="white" stroke-width="5.75673" stroke-linecap="round"/>
<path d="M223.273 290.025C228.993 290.025 234.785 290.378 240.425 289.352C243.66 288.764 246.942 289.294 250.177 288.755C254.162 288.09 258.252 288.343 262.284 288.343C271.252 288.343 280.22 288.343 289.187 288.343" stroke="white" stroke-width="5.75673" stroke-linecap="round"/>
<path d="M223.273 289.689C223.273 298.994 223.646 305.804 223.846 321.077" stroke="white" stroke-width="5.75673" stroke-linecap="round"/>
<path d="M225.285 321.637C234.582 321.637 243.84 321.301 253.123 321.301C264.03 321.301 274.968 321.596 285.818 320.609C291.979 320.049 298.095 319.955 304.315 319.955C305.427 319.955 320.457 319.96 320.457 319.955" stroke="white" stroke-width="5.75673" stroke-linecap="round"/>
<path d="M258.585 321.637C258.585 331.813 258.585 341.989 258.585 352.165C258.585 356.889 258.14 361.481 257.931 366.196C257.678 371.879 257.301 378.181 257.931 383.851C259.071 394.111 259.93 404.424 259.93 414.791" stroke="white" stroke-width="5.75673" stroke-linecap="round"/>
<path d="M255.886 382.506C251.913 382.506 247.94 382.506 243.966 382.506C240.885 382.506 237.874 383.515 234.774 383.515C233.347 383.515 232.5 383.515 226.965 382.506" stroke="white" stroke-width="5.75673" stroke-linecap="round"/>
<path d="M289.852 349.213C289.852 359.802 290.524 370.666 290.524 381.161" stroke="white" stroke-width="5.75673" stroke-linecap="round"/>
<path d="M290.5 382.842C294.5 383.515 299.764 383.515 303.376 383.515C305.386 383.515 307.393 382.842 309.355 382.842C312.72 382.842 317.564 382 321 382" stroke="white" stroke-width="5.75673" stroke-linecap="round"/>
<path d="M290.527 411.092C290.527 418.658 290 425.933 290 433.5C290 435.238 290 437.262 290 439C290 440.752 289.5 444.779 289.5 447" stroke="white" stroke-width="5.75673" stroke-linecap="round"/>
<path d="M227.981 414.455C227.981 419.75 227.645 424.97 227.645 430.261C227.645 434.858 228.317 439.419 228.317 444.049" stroke="white" stroke-width="5.75673" stroke-linecap="round"/>
<path d="M163.41 446.739C168.517 446.739 173.624 446.739 178.73 446.739C185.998 446.739 193.207 448.084 200.459 448.084C204.277 448.084 208.109 448.207 211.911 447.823C215.241 447.486 218.666 446.821 222 446.739C229.483 446.557 236.957 446.403 244.457 446.403C255.023 446.403 265.582 446.265 276.069 447.431C280.396 447.911 284.805 447.748 289.185 447.748" stroke="white" stroke-width="5.75673" stroke-linecap="round"/>
<path d="M163.5 447C163.5 452.873 164.499 457 164.502 464C164.502 468.5 165.5 474.516 165.5 478" stroke="white" stroke-width="5.75673" stroke-linecap="round"/>
<path d="M196.37 349.55C196.37 353.617 196.033 357.694 196.033 361.731C196.033 364.375 195.942 367.112 195.678 369.746C195.161 374.924 195.697 380.011 195.697 385.197C195.697 388.718 196.706 392.205 196.706 395.697C196.706 397.634 196.706 399.571 196.706 401.508C196.706 405.599 196.706 409.691 196.706 413.782" stroke="white" stroke-width="5.75673" stroke-linecap="round"/>
<path d="M197 414.5C205.408 414.5 215.383 413.201 228 414.5" stroke="white" stroke-width="5.75673" stroke-linecap="round"/>
<path d="M196.363 351.567C203.393 351.567 210.483 351.279 217.475 351.978C221.405 352.371 233.27 352.24 229.32 352.24" stroke="white" stroke-width="5.75673" stroke-linecap="round"/>
<path d="M194.689 223.852C194.689 229.925 194.606 234.532 194.69 240.589C194.758 245.504 195.397 250.399 196.185 255.237C196.843 259.279 197.116 263.503 197.978 267.493C199.143 272.883 198.389 279.069 198.389 284.569C198.389 287.206 198.053 289.746 198.053 292.379C198.053 294.186 198.371 296.33 197.978 298.096C195.93 307.313 196.035 317.327 196.035 326.756C196.035 333.676 196.185 343.1 196.185 350" stroke="white" stroke-width="5.75673" stroke-linecap="round"/>
<path d="M258.919 221.421C258.919 228.483 258.919 235.545 258.919 242.607C258.919 244.961 258.919 247.315 258.919 249.67C258.919 251.564 258.246 253.51 258.246 255.387" stroke="white" stroke-width="5.75673" stroke-linecap="round"/>
<path d="M199.055 255.386C199.202 256.568 212.975 255.386 214.524 255.386C220.468 255.386 226.345 254.377 232.273 254.377C241.152 254.377 249.695 257.068 258.579 257.068" stroke="white" stroke-width="5.75673" stroke-linecap="round"/>
<path d="M163.215 251.935C163.215 263.471 163.636 274.965 163.636 286.505" stroke="white" stroke-width="5.75673" stroke-linecap="round"/>
<path d="M164.059 287.981C170.617 287.981 175.5 288 183 287.5C188.5 287.5 188.877 287 192 287C195 286.901 192.473 286.926 197.5 286.599" stroke="white" stroke-width="5.75673" stroke-linecap="round"/>
<path d="M6.58594 319.537C9.30233 319.537 11.7855 319.665 14.472 320.121C17.8944 320.702 21.3655 320.522 24.8408 320.522C29.1667 320.522 42.1276 321.18 37.8018 321.18" stroke="white" stroke-width="5.75673" stroke-linecap="round"/>
<path d="M6.58594 448.014C6.68494 448.806 12.3776 448.343 12.9021 448.343C19.0616 448.343 25.2234 448.487 31.3578 448.033C33.8276 447.85 41.2641 448.014 38.7875 448.014" stroke="white" stroke-width="5.75673" stroke-linecap="round"/>
<path d="M100.565 448C100.565 453.729 100.235 457.41 100.235 463.13C100.235 465.971 100.235 468.813 100.235 471.655C100.235 472.675 99.547 478.491 100.565 479" stroke="white" stroke-width="5.75673" stroke-linecap="round"/>
<path d="M100.5 447C102.942 447 104.533 447 107 447C108.746 447 109.754 447 111.5 447C113.103 447 115.402 447 117 447C122.063 447 135.563 447 130.5 447" stroke="white" stroke-width="5.75673" stroke-linecap="round"/>
<path d="M131.451 379.997C131.451 383.039 131.451 386.082 131.451 389.124C131.451 392.795 130.506 396.379 130.465 400.04C130.367 408.792 130.137 417.555 130.137 426.327C130.137 433.177 131.78 439.92 131.78 446.7" stroke="white" stroke-width="5.75673" stroke-linecap="round"/>
<path d="M69.3516 412.856C69.3516 420.334 70.0087 427.724 70.0087 435.2C70.0087 439.385 71.3231 443.607 71.3231 447.686" stroke="white" stroke-width="5.75673" stroke-linecap="round"/>
<path d="M35.8359 412.198C41.4687 412.198 46.8696 410.884 52.5209 410.884C59.4485 410.884 66.2123 411.87 73.1124 411.87C79.138 411.87 84.6271 412.913 90.5458 413.823C93.3152 414.249 101.727 414.498 98.9247 414.498" stroke="white" stroke-width="5.75673" stroke-linecap="round"/>
<path d="M98.5 382.5C98.5 393.453 98.9453 403.487 99.5 414.5" stroke="white" stroke-width="5.75673" stroke-linecap="round"/>
<path d="M6.5 383.283C10.907 383.283 14.2385 383.963 18.5995 383.283C22.8325 382.622 26.5892 381.311 30.9033 381.311C40.6514 381.311 50.3995 381.311 60.1476 381.311C67.1174 381.311 73.9331 381.968 80.8851 381.968C85.2368 381.968 89.8669 381.502 94.1381 382.279C95.2718 382.485 96.798 382.625 97.9351 382.625" stroke="white" stroke-width="5.75673" stroke-linecap="round"/>
<path d="M4.61744 318.222C4.61744 323.238 4.33402 328.352 4.87301 333.337C5.65441 340.565 4.9262 347.935 5.7675 355.17C6.41644 360.751 6.26038 366.653 6.26038 372.275C6.26038 375.451 6.26038 378.628 6.26038 381.804C6.26038 385.005 5.79588 388.595 6.3334 391.753C7.06514 396.052 6.58896 400.757 6.58896 405.116C6.58896 411.558 5.75794 418.643 6.75326 425.013C7.36606 428.935 6.91755 433.22 6.91755 437.189C6.91755 440.25 6.91755 443.311 6.91755 446.372" stroke="white" stroke-width="5.75673" stroke-linecap="round"/>
<path d="M6.91499 446.372C6.91499 450.547 6.25781 454.655 6.25781 458.84C6.25781 461.122 6.25781 463.403 6.25781 465.685C6.25781 469.722 6.91499 473.641 6.91499 477.587" stroke="white" stroke-width="5.75673" stroke-linecap="round"/>
<path d="M163.91 351.636C163.91 359.143 163.91 366.651 163.91 374.158C163.91 377.606 164.486 381.098 164.817 384.53C165.121 387.689 164.889 390.968 164.889 394.141C164.889 398.733 165.216 403.28 165.216 407.85C165.216 408.932 165.216 409 165.869 413" stroke="white" stroke-width="5.75673" stroke-linecap="round"/>
<path d="M35.3164 352.942C47.8942 352.942 60.4224 352.289 72.9978 352.289C79.5319 352.289 86.066 352.289 92.6001 352.289C98.061 352.289 103.543 352.886 109.011 352.942C112.126 352.973 115.197 353.615 118.295 353.848C122.389 354.156 126.449 354.247 130.554 354.247C135.869 354.247 140.737 353.48 145.931 352.47C150.004 351.678 156.782 352.031 162.808 352.031" stroke="white" stroke-width="5.75673" stroke-linecap="round"/>
<path d="M67.5 289C67.5 293.814 68.4601 295.205 68.612 299.992C68.8302 306.866 69.6594 313.903 70.244 320.773C71.0222 329.917 70.5704 338.953 70.5704 348.046" stroke="white" stroke-width="5.75673" stroke-linecap="round"/>
<path d="M33.3555 288.64C39.3395 288.64 45.3236 288.64 51.3076 288.64C54.1606 288.64 57.0137 288.64 59.8667 288.64C61.0209 288.64 67.9176 288.432 67.5 288.64" stroke="white" stroke-width="5.75673" stroke-linecap="round"/>
<path d="M33.1049 254C33.1049 260.684 32.3771 268.948 33.1043 275.584C33.4294 278.55 33.1043 285.552 33.1043 288.5" stroke="white" stroke-width="5.75673" stroke-linecap="round"/>
<path d="M33.6836 254.041C40.5907 254.041 47.5123 253.875 54.3921 254.35C56.9516 254.526 59.5183 254.57 62.0807 254.712C66.4209 254.953 70.7058 255.911 75.0643 256C81.8362 256.138 102.147 256.653 95.3738 256.653" stroke="white" stroke-width="5.75673" stroke-linecap="round"/>
<path d="M100.5 316.5C107.5 318.035 113.351 317.032 120 316.5C124.647 316.128 129.402 316.5 134 316.5C138.364 316.5 143.136 316.5 147.5 316.5C151.314 316.5 154.733 316.779 158.5 316.5C161.464 316.28 164.555 316.5 167.5 316.5" stroke="white" stroke-width="5.75673" stroke-linecap="round"/>
<path d="M100.051 97.6084C100.051 107.361 100.398 116.991 100.755 126.643C101.083 135.502 102.868 144.644 102.868 153.604C102.868 162.364 103.965 171.961 105.529 180.564C107.36 190.633 105.686 202.507 105.686 212.729C105.686 233.498 106.832 254.549 103.729 275.103C101.67 288.742 100.755 302.163 100.755 315.955" stroke="white" stroke-width="5.75673" stroke-linecap="round"/>
<path d="M133.856 132.826C133.856 121.831 133.505 154.846 132.291 165.773C131.035 177.078 131.039 188.2 131.039 199.582C131.039 207.367 131.568 215.122 131.743 222.825C131.883 228.959 132.018 236.093 133.504 242.038C134.333 245.355 133.856 249.163 133.856 252.564C133.856 256.443 134.561 260.262 134.561 264.186C134.561 271.581 134.561 278.977 134.561 286.373C134.561 293.664 134.561 300.955 134.561 308.246C134.561 309.635 133.389 315.467 133.856 315" stroke="white" stroke-width="5.75673" stroke-linecap="round"/>
<path d="M135.438 161.365C142.292 161.365 149.147 161.365 156.002 161.365C158.433 161.365 160.739 160.69 163.126 160.69C163.908 160.69 166.129 161.058 166.481 160.353" stroke="white" stroke-width="5.75673" stroke-linecap="round"/>
<path d="M162.09 192.071C162.09 199.657 162.515 206.931 163.59 214.454C163.819 216.059 163.59 218.315 163.59 219.928C163.59 221.147 163.588 226.297 164.11 227.339" stroke="white" stroke-width="5.75673" stroke-linecap="round"/>
<path d="M164.121 227.164C167.35 227.164 170.61 227.31 173.832 227.089C178.438 226.774 182.812 225.756 187.348 224.971C190.291 224.462 192.021 224.288 195.073 223.416" stroke="white" stroke-width="5.75673" stroke-linecap="round"/>
<path d="M161.754 192.071C167.918 192.071 173.998 190.762 180.144 190.366C182.24 190.23 184.279 190.047 186.387 190.047C188.335 190.047 195.298 190.366 197.246 190.366" stroke="white" stroke-width="5.75673" stroke-linecap="round"/>
<path d="M196.172 129.309C196.172 134.314 196.172 139.32 196.172 144.325C196.172 150.814 196.847 157.28 196.847 163.802C196.847 172.691 197.522 181.481 197.522 190.384" stroke="white" stroke-width="5.75673" stroke-linecap="round"/>
<path d="M195.832 128.633C199.763 128.633 203.693 128.633 207.623 128.633C210.343 128.633 212.838 127.734 215.478 127.621C220.539 127.406 225.584 127.366 230.663 127.284C237.409 127.175 244.145 126.609 250.909 126.609C254.713 126.609 258.492 126.946 262.306 126.946" stroke="white" stroke-width="5.75673" stroke-linecap="round"/>
<path d="M226.883 34.1523C226.883 41.3168 226.504 48.598 226.958 55.7481C227.248 60.3208 227.822 64.9369 227.895 69.5078C228.02 77.4177 227.783 85.3352 228.645 93.2031C229.613 102.036 228.645 112 228.645 124" stroke="white" stroke-width="5.75673" stroke-linecap="round"/>
<path d="M195.494 34.8279C186.158 34.8279 217.164 34 226.5 34" stroke="white" stroke-width="5.75673" stroke-linecap="round"/>
<path d="M192.793 34.8271C192.793 41.5437 193.311 48.0788 194.143 54.7357C194.477 57.4109 194.818 59.8034 194.818 62.4967" stroke="white" stroke-width="5.75673" stroke-linecap="round"/>
<path d="M194.823 64.1841C186.604 64.1841 178.436 64.7009 170.265 65.6088C163.481 66.3626 156.801 68.2333 149.963 68.2333C144.343 68.2333 139.035 66.5461 133.41 66.5461" stroke="white" stroke-width="5.75673" stroke-linecap="round"/>
<path d="M133.412 66.8838C133.412 76.5118 133.074 85.9843 133.074 95.5656" stroke="white" stroke-width="5.75673" stroke-linecap="round"/>
<path d="M38.5898 94.5532C49.5438 94.5532 60.428 94.4212 71.3209 95.2281C79.0896 95.8035 86.7585 96.8158 94.5662 96.9152C98.9966 96.9717 103.377 97.9275 107.764 97.9275C112.263 97.9275 116.642 98.6037 121.111 98.2462C122.169 98.1616 128.933 97.9275 132.725 97.9275" stroke="white" stroke-width="5.75673" stroke-linecap="round"/>
<path d="M134.418 128.971C140.331 128.971 146.205 128.634 152.114 128.634C156.31 128.634 160.711 128.971 164.787 128.971" stroke="white" stroke-width="5.75673" stroke-linecap="round"/>
<path d="M165.465 96.9153C165.465 104.214 165.644 111.508 165.802 118.773C165.876 122.143 166.14 125.687 166.14 128.971" stroke="white" stroke-width="5.75673" stroke-linecap="round"/>
<path d="M165.5 96.2393C169.861 96.2393 175.639 95.708 180 95.752C183.238 95.7847 186.259 95.7521 189.5 95.7521C190.704 95.7521 192.053 95.3531 193.192 95.7519C195.5 95.7519 194 95.7519 198.5 95.7519" stroke="white" stroke-width="5.75673" stroke-linecap="round"/>
<path d="M37.2422 192.409C43.2664 192.409 49.4088 192.775 55.4073 192.24C60.8175 191.757 66.0789 191.059 71.5291 191.059C81.1851 191.059 94.8199 192.409 104.5 192.409" stroke="white" stroke-width="5.75673" stroke-linecap="round"/>
<path d="M5.34973 156C5.34973 173.203 5.34973 190.406 5.34973 207.609C5.34973 214.251 5.34973 220.893 5.34973 227.536C5.34973 229.842 5.34973 232.147 5.34973 234.453C5.34973 236.882 4.44448 239.321 4.33743 241.783C4.02579 248.951 4 270.478 4 263.304" stroke="white" stroke-width="5.75673" stroke-linecap="round"/>
<path d="M4 265C4 275.043 4.67487 284.984 4.67487 295.032C4.67487 302.906 5.0123 326.526 5.0123 318.652" stroke="white" stroke-width="5.75673" stroke-linecap="round"/>
<path d="M6.5 227C20.2897 227 40.1991 226.477 53.941 225.459C57.712 225.179 61.4531 225.248 65.245 225.14C66.9057 225.092 68.9915 225.001 70.6065 224.634C71.3007 224.476 72.6875 224.099 71.9937 225.14" stroke="white" stroke-width="5.75673" stroke-linecap="round"/>
<path d="M164.184 3.17432C176.523 3.17432 188.877 3.57219 201.186 3.57219C209.644 3.57219 218.102 3.57219 226.561 3.57219C234.441 3.57219 242.236 4.36793 250.101 4.36793C260.584 4.36793 271.04 4.7658 281.533 4.7658C288.007 4.7658 294.31 5.56154 300.741 5.56154C304.757 5.56154 308.773 5.56154 312.788 5.56154C314.263 5.56154 315.554 5.7939 316.988 5.9373C317.556 5.99407 321.813 5.88672 321.342 6.35728" stroke="white" stroke-width="5.75673" stroke-linecap="round"/>
<path d="M321.5 6.5C321.5 25.641 323.582 43.3726 323.582 62.5136C323.582 77.4754 321.824 92.6298 323.582 107.579C325.693 125.519 326.58 143.215 326.58 161.272C326.58 172.638 325.981 183.781 325.981 195.146" stroke="white" stroke-width="5.75673" stroke-linecap="round"/>
<path d="M325.972 191.549C325.972 209.524 325.373 227.434 325.373 245.375C325.373 262.669 323.574 279.869 323.574 297.069C323.574 304.463 323.574 311.857 323.574 319.252C323.574 328.282 322.375 337.13 322.375 346.098C322.375 351.039 323 354.559 323 359.5C323 363.641 323 363.5 323 371.5" stroke="white" stroke-width="5.75673" stroke-linecap="round"/>
<path d="M322.974 369.5C322.974 380.232 322.508 393.327 322.508 404C322.508 413.041 322.375 420.5 322.508 430.634C321.795 434.644 322.375 439.267 322.375 443.358C322.375 448.554 322.375 453.75 322.375 458.946C322.375 464.813 322.974 470.471 322.974 476.333" stroke="white" stroke-width="5.75673" stroke-linecap="round"/>
</svg>
