<svg width="434" height="154" viewBox="0 0 434 154" fill="none" xmlns="http://www.w3.org/2000/svg">
<rect y="23" width="434" height="108" fill="black"/>
<path d="M25.95 53.65C26.25 53.45 26.8 53.35 27.6 53.35C29.1 53.35 30.35 53.75 31.35 54.55C32.25 55.25 34.85 55.6 39.15 55.6C42.95 55.6 47.65 55.9 53.25 56.5C58.85 57 62.05 57.5 62.85 58C63.95 58.6 64.5 59.55 64.5 60.85C64.5 61.35 64.45 61.75 64.35 62.05C63.85 63.65 59.25 64.7 50.55 65.2C42.85 65.6 38.45 65.9 37.35 66.1L33.75 66.55L33.6 71.65V72.85C33.6 76.25 33.95 80.55 34.65 85.75C35.25 90.55 35.55 93.4 35.55 94.3C35.55 95.4 35.35 96.35 34.95 97.15C34.05 98.85 32.75 99.7 31.05 99.7C28.85 99.7 27.25 98.6 26.25 96.4C25.25 94.5 24.25 90.7 23.25 85C22.25 79.3 21.75 74.7 21.75 71.2C21.75 68.8 21.45 67.25 20.85 66.55C20.25 65.85 19.95 64.95 19.95 63.85C19.95 62.15 21.15 59.65 23.55 56.35C24.65 54.75 25.45 53.85 25.95 53.65ZM118.084 65.2C116.884 64.6 115.484 64.3 113.884 64.3C111.284 64.3 108.634 65.1 105.934 66.7C103.334 68.2 101.234 70.25 99.634 72.85C97.834 75.65 96.934 78.65 96.934 81.85C96.934 86.15 98.384 88.95 101.284 90.25C102.284 90.75 103.084 91 103.684 91C104.084 91 105.134 90.75 106.834 90.25C110.334 89.35 113.334 87.55 115.834 84.85C117.234 83.25 118.534 81 119.734 78.1C121.034 75.1 121.684 72.75 121.684 71.05C121.684 69.95 121.334 68.8 120.634 67.6C119.934 66.4 119.084 65.6 118.084 65.2ZM107.434 53.8C108.634 53.4 110.984 53.2 114.484 53.2C119.784 53.4 123.834 54.95 126.634 57.85C129.534 60.65 130.984 64.3 130.984 68.8C130.984 72.8 129.884 77 127.684 81.4C125.584 85.5 122.884 89.15 119.584 92.35C117.084 94.85 114.384 96.85 111.484 98.35C107.284 100.45 103.634 101.5 100.534 101.5C96.234 101.5 92.884 99.7 90.484 96.1C88.184 92.7 87.034 88.15 87.034 82.45C87.034 75.55 88.834 69.6 92.434 64.6C96.034 59.5 101.034 55.9 107.434 53.8ZM162.689 52.3C166.589 52 170.739 51.85 175.139 51.85C190.139 51.85 198.739 52.8 200.939 54.7C201.839 55.6 202.289 56.55 202.289 57.55C202.289 58.25 202.039 58.85 201.539 59.35C201.139 59.75 199.089 60.15 195.389 60.55C191.789 60.95 188.589 61.15 185.789 61.15H182.489L176.189 80.05C171.789 92.85 169.289 99.45 168.689 99.85C167.989 100.55 166.989 100.9 165.689 100.9C162.989 100.9 161.339 99.9 160.739 97.9C160.639 97.6 160.589 97 160.589 96.1C160.589 93.3 161.389 89.15 162.989 83.65C164.689 78.05 166.739 72.7 169.139 67.6L171.989 61.3L164.489 61.15C160.489 61.05 157.739 60.75 156.239 60.25C154.839 59.75 153.939 58.9 153.539 57.7C153.439 57.5 153.389 57.25 153.389 56.95C153.389 55.45 154.139 54.3 155.639 53.5C156.839 53 159.189 52.6 162.689 52.3ZM255.621 65.2C254.421 64.6 253.021 64.3 251.421 64.3C248.821 64.3 246.171 65.1 243.471 66.7C240.871 68.2 238.771 70.25 237.171 72.85C235.371 75.65 234.471 78.65 234.471 81.85C234.471 86.15 235.921 88.95 238.821 90.25C239.821 90.75 240.621 91 241.221 91C241.621 91 242.671 90.75 244.371 90.25C247.871 89.35 250.871 87.55 253.371 84.85C254.771 83.25 256.071 81 257.271 78.1C258.571 75.1 259.221 72.75 259.221 71.05C259.221 69.95 258.871 68.8 258.171 67.6C257.471 66.4 256.621 65.6 255.621 65.2ZM244.971 53.8C246.171 53.4 248.521 53.2 252.021 53.2C257.321 53.4 261.371 54.95 264.171 57.85C267.071 60.65 268.521 64.3 268.521 68.8C268.521 72.8 267.421 77 265.221 81.4C263.121 85.5 260.421 89.15 257.121 92.35C254.621 94.85 251.921 96.85 249.021 98.35C244.821 100.45 241.171 101.5 238.071 101.5C233.771 101.5 230.421 99.7 228.021 96.1C225.721 92.7 224.571 88.15 224.571 82.45C224.571 75.55 226.371 69.6 229.971 64.6C233.571 59.5 238.571 55.9 244.971 53.8ZM345.376 83.35C345.376 81.35 341.576 80.35 333.976 80.35C333.576 80.35 332.976 80.4 332.176 80.5C331.476 80.5 331.026 80.5 330.826 80.5C326.626 81 322.226 81.35 317.626 81.55C316.926 81.55 316.076 81.6 315.076 81.7C314.076 81.7 313.276 81.7 312.676 81.7C312.076 81.7 311.426 81.75 310.726 81.85C310.026 81.85 309.476 81.9 309.076 82C308.676 82 308.276 82.05 307.876 82.15C307.476 82.25 307.176 82.35 306.976 82.45C306.876 82.55 306.826 82.7 306.826 82.9C306.826 83.5 306.926 85 307.126 87.4L307.576 92.05H309.376C311.076 92.05 315.326 91.6 322.126 90.7C328.926 89.8 333.276 89.1 335.176 88.6C337.776 87.9 340.126 87.05 342.226 86.05C344.326 84.95 345.376 84.05 345.376 83.35ZM327.226 63.4C323.626 63 319.126 62.8 313.726 62.8H305.026L305.326 67.3C305.526 70.3 305.776 71.95 306.076 72.25C306.176 72.35 306.426 72.4 306.826 72.4C308.826 72.4 313.076 71.55 319.576 69.85C326.176 68.05 330.426 66.6 332.326 65.5C333.026 65.1 333.376 64.85 333.376 64.75C333.376 64.35 331.326 63.9 327.226 63.4ZM299.476 47.8C299.976 47.5 300.426 47.35 300.826 47.35C302.426 47.35 303.526 49.1 304.126 52.6L304.576 55.3H315.826C330.026 55.3 338.676 56.7 341.776 59.5C343.276 60.8 344.026 62.3 344.026 64C344.026 66.5 342.176 69.05 338.476 71.65L335.326 73.75L340.126 74.5C348.226 75.7 352.276 78.8 352.276 83.8C352.276 87.8 349.376 91.15 343.576 93.85C338.276 96.35 330.026 98.15 318.826 99.25L308.026 100.3V103.15C308.026 106.95 306.776 108.85 304.276 108.85C302.076 108.85 300.526 106.85 299.626 102.85C299.526 101.95 299.276 101.4 298.876 101.2C298.476 100.9 297.726 100.65 296.626 100.45C294.926 100.15 293.776 99.8 293.176 99.4C292.676 98.9 292.426 98.1 292.426 97C292.426 95.2 293.626 94.05 296.026 93.55C297.026 93.45 297.576 93.25 297.676 92.95C297.876 92.55 297.876 91.65 297.676 90.25C297.176 86.15 296.826 83.75 296.626 83.05C296.526 82.35 296.126 82 295.426 82H295.276C294.076 82 293.126 81.7 292.426 81.1C291.726 80.4 291.376 79.6 291.376 78.7C291.376 77.2 292.276 76.1 294.076 75.4L296.176 74.65V62.95L293.926 62.2C291.826 61.6 290.776 60.5 290.776 58.9C290.776 58.4 290.976 57.95 291.376 57.55C292.076 56.85 293.176 56.25 294.676 55.75C295.776 55.35 296.476 55 296.776 54.7C297.076 54.3 297.426 53.3 297.826 51.7C298.226 49.6 298.776 48.3 299.476 47.8ZM405.316 65.2C404.116 64.6 402.716 64.3 401.116 64.3C398.516 64.3 395.866 65.1 393.166 66.7C390.566 68.2 388.466 70.25 386.866 72.85C385.066 75.65 384.166 78.65 384.166 81.85C384.166 86.15 385.616 88.95 388.516 90.25C389.516 90.75 390.316 91 390.916 91C391.316 91 392.366 90.75 394.066 90.25C397.566 89.35 400.566 87.55 403.066 84.85C404.466 83.25 405.766 81 406.966 78.1C408.266 75.1 408.916 72.75 408.916 71.05C408.916 69.95 408.566 68.8 407.866 67.6C407.166 66.4 406.316 65.6 405.316 65.2ZM394.666 53.8C395.866 53.4 398.216 53.2 401.716 53.2C407.016 53.4 411.066 54.95 413.866 57.85C416.766 60.65 418.216 64.3 418.216 68.8C418.216 72.8 417.116 77 414.916 81.4C412.816 85.5 410.116 89.15 406.816 92.35C404.316 94.85 401.616 96.85 398.716 98.35C394.516 100.45 390.866 101.5 387.766 101.5C383.466 101.5 380.116 99.7 377.716 96.1C375.416 92.7 374.266 88.15 374.266 82.45C374.266 75.55 376.066 69.6 379.666 64.6C383.266 59.5 388.266 55.9 394.666 53.8Z" fill="white"/>
</svg>
