<svg width="380" height="387" viewBox="0 0 380 387" fill="none" xmlns="http://www.w3.org/2000/svg">
<path d="M244.84 278.751C246.211 289.723 255.662 298.226 261.152 307.376C265.127 314 268.385 321.18 272.78 327.529C277.631 334.535 280.078 342.973 284.62 349.786" stroke="#C3C3C3" stroke-width="30.9238" stroke-linecap="round"/>
<path d="M200.035 289.795C200.035 298.879 200.147 307.969 200.035 317.052C199.921 326.282 198.14 335.466 198.14 344.677C198.14 353.393 198.99 363.018 196.246 371.249" stroke="#B2B2B2" stroke-width="30.9238" stroke-linecap="round"/>
<path d="M103.139 356.024C103.139 353.415 101.895 351.954 103.139 349.394C105.004 345.553 107.368 342.479 109.769 338.975C116.232 329.542 123.683 318.868 131.553 310.561C136.747 305.079 140.633 298.114 145.97 292.776C148.282 290.465 150.357 288.245 151.443 284.988" stroke="#B0B0B0" stroke-width="30.9238" stroke-linecap="round"/>
<path d="M40.625 283.094C48.1427 279.221 53.949 273.288 61.0411 268.886C68.9486 263.978 77.7259 259.386 86.0877 255.206C94.7128 250.893 103.157 245.671 111.66 241.419" stroke="#9C9C9C" stroke-width="30.9238" stroke-linecap="round"/>
<path d="M16 193.115C33.7569 193.115 51.2835 194.062 69.0398 194.062C77.0729 194.062 85.106 194.062 93.1392 194.062C95.323 194.062 102.162 195.064 103.137 193.115" stroke="#8B8B8B" stroke-width="30.9238" stroke-linecap="round"/>
<path d="M39.6836 107.873C48.4242 107.873 57.6626 113.496 65.2563 117.344C73.4011 121.473 83.0099 125.532 90.6186 130.604C96.0546 134.228 101.591 143.864 108.825 143.864" stroke="#636363" stroke-width="30.9238" stroke-linecap="round"/>
<path d="M106.926 34.9434C107.291 38.5911 110.387 41.7828 112.398 44.6252C116.064 49.8057 119.498 55.1846 123.238 60.3056C128.892 68.05 135.663 75.3567 141.023 83.2474C144.737 88.7153 147.664 95.2493 150.494 101.243C151.825 104.062 154.283 108.507 154.283 111.662" stroke="#494949" stroke-width="30.9238" stroke-linecap="round"/>
<path d="M196.91 16C196.91 29.4156 197.644 42.6266 200.488 55.7798C201.491 60.418 201.646 65.4116 201.646 70.1974C201.646 78.7315 202.593 87.7002 202.593 96.5068" stroke="#363636" stroke-width="30.9238" stroke-linecap="round"/>
<path d="M245.211 111.662C245.781 105.958 249.46 99.4443 252.314 94.6131C254.257 91.3259 256.736 88.7705 259.418 86.0888C262.377 83.1296 264.223 79.6344 266.995 76.6174C271.772 71.419 275.972 65.4944 279.782 59.5689C281.554 56.8125 283.648 54.018 286.885 52.939" stroke="white" stroke-width="30.9238" stroke-linecap="round"/>
<path d="M277.41 159.019C282.763 153.666 286.87 148.151 293.301 143.864C300.324 139.183 307.759 133.9 315.296 130.131C323.238 126.16 330.835 122.077 338.501 117.818C341.697 116.043 346.618 112.609 350.34 112.609" stroke="#F0F0F0" stroke-width="30.9238" stroke-linecap="round"/>
<path d="M285.938 202.587C311.809 202.587 337.932 201.64 363.603 201.64" stroke="#E2E2E2" stroke-width="30.9238" stroke-linecap="round"/>
<path d="M280.25 249.943C293.293 249.943 304.878 259.416 315.768 265.571C320.395 268.187 324.909 271.535 329.291 274.569C332.487 276.782 335.784 278.126 338.973 280.252" stroke="#D5D5D5" stroke-width="30.9238" stroke-linecap="round"/>
</svg>
