<svg width="118" height="62" viewBox="0 0 118 62" fill="none" xmlns="http://www.w3.org/2000/svg">
<rect y="13" width="117" height="40" fill="black"/>
<path d="M25.02 33.94C25.02 33.14 23.5 32.74 20.46 32.74C20.3 32.74 20.06 32.76 19.74 32.8C19.46 32.8 19.28 32.8 19.2 32.8C17.52 33 15.76 33.14 13.92 33.22C13.64 33.22 13.3 33.24 12.9 33.28C12.5 33.28 12.18 33.28 11.94 33.28C11.7 33.28 11.44 33.3 11.16 33.34C10.88 33.34 10.66 33.36 10.5 33.4C10.34 33.4 10.18 33.42 10.02 33.46C9.86 33.5 9.74 33.54 9.66 33.58C9.62 33.62 9.6 33.68 9.6 33.76C9.6 34 9.64 34.6 9.72 35.56L9.9 37.42H10.62C11.3 37.42 13 37.24 15.72 36.88C18.44 36.52 20.18 36.24 20.94 36.04C21.98 35.76 22.92 35.42 23.76 35.02C24.6 34.58 25.02 34.22 25.02 33.94ZM17.76 25.96C16.32 25.8 14.52 25.72 12.36 25.72H8.88L9 27.52C9.08 28.72 9.18 29.38 9.3 29.5C9.34 29.54 9.44 29.56 9.6 29.56C10.4 29.56 12.1 29.22 14.7 28.54C17.34 27.82 19.04 27.24 19.8 26.8C20.08 26.64 20.22 26.54 20.22 26.5C20.22 26.34 19.4 26.16 17.76 25.96ZM6.66 19.72C6.86 19.6 7.04 19.54 7.2 19.54C7.84 19.54 8.28 20.24 8.52 21.64L8.7 22.72H13.2C18.88 22.72 22.34 23.28 23.58 24.4C24.18 24.92 24.48 25.52 24.48 26.2C24.48 27.2 23.74 28.22 22.26 29.26L21 30.1L22.92 30.4C26.16 30.88 27.78 32.12 27.78 34.12C27.78 35.72 26.62 37.06 24.3 38.14C22.18 39.14 18.88 39.86 14.4 40.3L10.08 40.72V41.86C10.08 43.38 9.58 44.14 8.58 44.14C7.7 44.14 7.08 43.34 6.72 41.74C6.68 41.38 6.58 41.16 6.42 41.08C6.26 40.96 5.96 40.86 5.52 40.78C4.84 40.66 4.38 40.52 4.14 40.36C3.94 40.16 3.84 39.84 3.84 39.4C3.84 38.68 4.32 38.22 5.28 38.02C5.68 37.98 5.9 37.9 5.94 37.78C6.02 37.62 6.02 37.26 5.94 36.7C5.74 35.06 5.6 34.1 5.52 33.82C5.48 33.54 5.32 33.4 5.04 33.4H4.98C4.5 33.4 4.12 33.28 3.84 33.04C3.56 32.76 3.42 32.44 3.42 32.08C3.42 31.48 3.78 31.04 4.5 30.76L5.34 30.46V25.78L4.44 25.48C3.6 25.24 3.18 24.8 3.18 24.16C3.18 23.96 3.26 23.78 3.42 23.62C3.7 23.34 4.14 23.1 4.74 22.9C5.18 22.74 5.46 22.6 5.58 22.48C5.7 22.32 5.84 21.92 6 21.28C6.16 20.44 6.38 19.92 6.66 19.72ZM56.8561 22.3C57.0561 22.22 57.3761 22.18 57.8161 22.18C58.4561 22.18 58.8561 22.28 59.0161 22.48C59.1761 22.72 59.2561 22.88 59.2561 22.96C59.2561 23.28 58.9161 23.76 58.2361 24.4C57.5561 25.04 56.2361 26.14 54.2761 27.7C51.1161 30.18 49.5361 31.48 49.5361 31.6C49.5361 31.72 50.6761 32.7 52.9561 34.54C55.2361 36.38 56.4561 37.5 56.6161 37.9C56.7361 38.14 56.7961 38.38 56.7961 38.62C56.7961 39.06 56.6361 39.42 56.3161 39.7C56.0361 39.98 55.6561 40.12 55.1761 40.12C54.6561 40.12 54.0361 39.9 53.3161 39.46C52.6361 39.02 51.3961 38.08 49.5961 36.64L46.1761 33.94L43.7761 35.8C39.4161 39.16 36.7561 40.84 35.7961 40.84C35.4761 40.84 35.1561 40.66 34.8361 40.3C34.5161 39.94 34.3561 39.6 34.3561 39.28C34.3561 38.84 34.6361 38.34 35.1961 37.78C35.7561 37.22 37.0961 36.14 39.2161 34.54C41.8161 32.58 43.1161 31.56 43.1161 31.48C43.1161 31.44 42.1761 30.62 40.2961 29.02C38.6561 27.66 37.6161 26.72 37.1761 26.2C36.7361 25.68 36.5161 25.16 36.5161 24.64C36.5161 23.76 36.9161 23.32 37.7161 23.32C38.2361 23.32 38.7961 23.52 39.3961 23.92C40.0361 24.28 41.2361 25.14 42.9961 26.5C45.1561 28.14 46.2961 28.96 46.4161 28.96C46.6161 28.96 47.8761 28.16 50.1961 26.56C53.5561 24.12 55.7761 22.7 56.8561 22.3ZM78.1781 26.68C77.6981 26.44 77.1381 26.32 76.4981 26.32C75.4581 26.32 74.3981 26.64 73.3181 27.28C72.2781 27.88 71.4381 28.7 70.7981 29.74C70.0781 30.86 69.7181 32.06 69.7181 33.34C69.7181 35.06 70.2981 36.18 71.4581 36.7C71.8581 36.9 72.1781 37 72.4181 37C72.5781 37 72.9981 36.9 73.6781 36.7C75.0781 36.34 76.2781 35.62 77.2781 34.54C77.8381 33.9 78.3581 33 78.8381 31.84C79.3581 30.64 79.6181 29.7 79.6181 29.02C79.6181 28.58 79.4781 28.12 79.1981 27.64C78.9181 27.16 78.5781 26.84 78.1781 26.68ZM73.9181 22.12C74.3981 21.96 75.3381 21.88 76.7381 21.88C78.8581 21.96 80.4781 22.58 81.5981 23.74C82.7581 24.86 83.3381 26.32 83.3381 28.12C83.3381 29.72 82.8981 31.4 82.0181 33.16C81.1781 34.8 80.0981 36.26 78.7781 37.54C77.7781 38.54 76.6981 39.34 75.5381 39.94C73.8581 40.78 72.3981 41.2 71.1581 41.2C69.4381 41.2 68.0981 40.48 67.1381 39.04C66.2181 37.68 65.7581 35.86 65.7581 33.58C65.7581 30.82 66.4781 28.44 67.9181 26.44C69.3581 24.4 71.3581 22.96 73.9181 22.12ZM104.12 25.42C103.84 24.82 103.5 24.52 103.1 24.52C102.5 24.52 101.9 25.26 101.3 26.74C100.7 28.22 100.2 30.22 99.8002 32.74C99.7202 33.18 99.6002 33.78 99.4402 34.54C99.3202 35.26 99.2602 35.66 99.2602 35.74L99.1402 36.52H100.88C102.2 36.52 103.28 36.46 104.12 36.34L105.62 36.22L105.5 32.68C105.38 29.48 104.92 27.06 104.12 25.42ZM101.6 20.5C102.32 20.34 102.82 20.26 103.1 20.26C105.58 20.26 107.5 22.14 108.86 25.9C109.26 27.06 109.46 29.04 109.46 31.84V36.28L111.08 36.4C112.16 36.52 112.88 36.76 113.24 37.12C113.6 37.48 113.78 37.92 113.78 38.44C113.78 38.88 113.66 39.26 113.42 39.58C113.14 39.94 112.44 40.2 111.32 40.36C110.24 40.52 107.8 40.74 104 41.02C99.7202 41.3 97.0202 41.52 95.9002 41.68C95.3402 41.76 94.8202 41.8 94.3402 41.8C93.9002 41.8 93.3602 41.76 92.7202 41.68C91.6002 41.6 90.8802 41.34 90.5602 40.9C90.2002 40.46 90.0202 40 90.0202 39.52C90.0202 39.04 90.1602 38.64 90.4402 38.32C90.7202 37.92 91.4602 37.62 92.6602 37.42L94.4602 37.18L94.7002 35.5C95.3402 31.46 96.2802 28.06 97.5202 25.3C98.8002 22.5 100.16 20.9 101.6 20.5Z" fill="white"/>
</svg>
